<mxfile host="Electron" agent="Mozilla/5.0 (Windows NT 10.0; Win64; x64) AppleWebKit/537.36 (KHTML, like Gecko) draw.io/24.7.17 Chrome/128.0.6613.36 Electron/32.0.1 Safari/537.36" version="24.7.17" pages="13">
  <diagram id="KHcNdU5hhbmKwUSrfLFA" name="sign up UC ">
    <mxGraphModel dx="1433" dy="690" grid="1" gridSize="10" guides="1" tooltips="1" connect="1" arrows="1" fold="1" page="1" pageScale="1" pageWidth="850" pageHeight="1100" math="0" shadow="0">
      <root>
        <mxCell id="0" />
        <mxCell id="1" parent="0" />
        <mxCell id="Xh0KfEYHmcmI0ymQZEqk-1" value="" style="rounded=0;whiteSpace=wrap;html=1;fontFamily=Helvetica;fontSize=11;fontColor=default;labelBackgroundColor=none;" vertex="1" parent="1">
          <mxGeometry x="120" y="230" width="570" height="240" as="geometry" />
        </mxCell>
        <mxCell id="ioPYpOOcN4eU0sPTpNLF-1" value="User&amp;nbsp;&lt;div&gt;&lt;br&gt;&lt;/div&gt;" style="shape=umlActor;verticalLabelPosition=bottom;verticalAlign=top;html=1;outlineConnect=0;" vertex="1" parent="1">
          <mxGeometry x="60" y="310" width="30" height="60" as="geometry" />
        </mxCell>
        <mxCell id="ioPYpOOcN4eU0sPTpNLF-2" value="&lt;div&gt;Backend Database&amp;nbsp;&lt;/div&gt;" style="shape=umlActor;verticalLabelPosition=bottom;verticalAlign=top;html=1;outlineConnect=0;" vertex="1" parent="1">
          <mxGeometry x="730" y="340" width="30" height="60" as="geometry" />
        </mxCell>
        <mxCell id="ioPYpOOcN4eU0sPTpNLF-16" value="" style="edgeStyle=none;shape=connector;rounded=0;orthogonalLoop=1;jettySize=auto;html=1;strokeColor=default;strokeWidth=3;align=center;verticalAlign=bottom;fontFamily=Helvetica;fontSize=11;fontColor=default;labelBackgroundColor=none;startArrow=none;startFill=0;endArrow=none;endFill=0;endSize=8;" edge="1" parent="1" source="ioPYpOOcN4eU0sPTpNLF-3" target="ioPYpOOcN4eU0sPTpNLF-8">
          <mxGeometry relative="1" as="geometry" />
        </mxCell>
        <mxCell id="ioPYpOOcN4eU0sPTpNLF-18" value="" style="edgeStyle=none;shape=connector;rounded=0;orthogonalLoop=1;jettySize=auto;html=1;strokeColor=default;strokeWidth=3;align=center;verticalAlign=bottom;fontFamily=Helvetica;fontSize=11;fontColor=default;labelBackgroundColor=none;startArrow=none;startFill=0;endArrow=none;endFill=0;endSize=8;" edge="1" parent="1" source="ioPYpOOcN4eU0sPTpNLF-3" target="ioPYpOOcN4eU0sPTpNLF-1">
          <mxGeometry relative="1" as="geometry" />
        </mxCell>
        <mxCell id="ioPYpOOcN4eU0sPTpNLF-3" value="Sign Up For Membership" style="ellipse;whiteSpace=wrap;html=1;" vertex="1" parent="1">
          <mxGeometry x="140" y="305" width="140" height="70" as="geometry" />
        </mxCell>
        <mxCell id="ioPYpOOcN4eU0sPTpNLF-21" value="" style="edgeStyle=none;shape=connector;rounded=0;orthogonalLoop=1;jettySize=auto;html=1;strokeColor=default;strokeWidth=3;align=center;verticalAlign=bottom;fontFamily=Helvetica;fontSize=11;fontColor=default;labelBackgroundColor=none;startArrow=none;startFill=0;endArrow=none;endFill=0;endSize=8;" edge="1" parent="1" source="ioPYpOOcN4eU0sPTpNLF-5" target="ioPYpOOcN4eU0sPTpNLF-2">
          <mxGeometry relative="1" as="geometry" />
        </mxCell>
        <mxCell id="ioPYpOOcN4eU0sPTpNLF-5" value="System Stores Account Information&amp;nbsp;" style="ellipse;whiteSpace=wrap;html=1;" vertex="1" parent="1">
          <mxGeometry x="520" y="340" width="140" height="70" as="geometry" />
        </mxCell>
        <mxCell id="ioPYpOOcN4eU0sPTpNLF-17" value="" style="edgeStyle=none;shape=connector;rounded=0;orthogonalLoop=1;jettySize=auto;html=1;strokeColor=default;strokeWidth=3;align=center;verticalAlign=bottom;fontFamily=Helvetica;fontSize=11;fontColor=default;labelBackgroundColor=none;startArrow=none;startFill=0;endArrow=none;endFill=0;endSize=8;" edge="1" parent="1" source="ioPYpOOcN4eU0sPTpNLF-8" target="ioPYpOOcN4eU0sPTpNLF-5">
          <mxGeometry relative="1" as="geometry" />
        </mxCell>
        <mxCell id="ioPYpOOcN4eU0sPTpNLF-8" value="System Verifies Account Details&amp;nbsp;" style="ellipse;whiteSpace=wrap;html=1;" vertex="1" parent="1">
          <mxGeometry x="320" y="305" width="140" height="70" as="geometry" />
        </mxCell>
        <mxCell id="ioPYpOOcN4eU0sPTpNLF-19" value="System Prompts User of Sucsessful Account Creation&amp;nbsp;" style="ellipse;whiteSpace=wrap;html=1;" vertex="1" parent="1">
          <mxGeometry x="510" y="260" width="140" height="70" as="geometry" />
        </mxCell>
        <mxCell id="ioPYpOOcN4eU0sPTpNLF-23" value="&amp;lt;&amp;lt;extend&amp;gt;&amp;gt;" style="html=1;verticalAlign=bottom;labelBackgroundColor=none;endArrow=open;endFill=0;dashed=1;rounded=0;strokeColor=default;strokeWidth=3;align=center;fontFamily=Helvetica;fontSize=11;fontColor=default;endSize=8;entryX=0;entryY=0.5;entryDx=0;entryDy=0;" edge="1" parent="1" source="ioPYpOOcN4eU0sPTpNLF-8" target="ioPYpOOcN4eU0sPTpNLF-19">
          <mxGeometry x="-0.4212" y="13" width="160" relative="1" as="geometry">
            <mxPoint x="410" y="190" as="sourcePoint" />
            <mxPoint x="570" y="190" as="targetPoint" />
            <mxPoint as="offset" />
          </mxGeometry>
        </mxCell>
        <mxCell id="ioPYpOOcN4eU0sPTpNLF-24" value="Sign Up for membership&amp;nbsp;" style="shape=note2;boundedLbl=1;whiteSpace=wrap;html=1;size=25;verticalAlign=top;align=center;fontFamily=Helvetica;fontSize=11;fontColor=default;labelBackgroundColor=none;" vertex="1" parent="1">
          <mxGeometry x="120" y="140" width="120" height="80" as="geometry" />
        </mxCell>
      </root>
    </mxGraphModel>
  </diagram>
  <diagram id="58nYUop1IiYyVIA7B6gJ" name="check out media  UC ">
    <mxGraphModel dx="1290" dy="621" grid="1" gridSize="10" guides="1" tooltips="1" connect="1" arrows="1" fold="1" page="1" pageScale="1" pageWidth="850" pageHeight="1100" math="0" shadow="0">
      <root>
        <mxCell id="0" />
        <mxCell id="1" parent="0" />
        <mxCell id="hzTV6NfNM5PU4wkWB_VM-2" value="" style="rounded=0;whiteSpace=wrap;html=1;fontFamily=Helvetica;fontSize=11;fontColor=default;labelBackgroundColor=none;" vertex="1" parent="1">
          <mxGeometry x="100" y="140" width="480" height="400" as="geometry" />
        </mxCell>
        <mxCell id="hzTV6NfNM5PU4wkWB_VM-3" value="" style="edgeStyle=none;shape=connector;rounded=0;orthogonalLoop=1;jettySize=auto;html=1;strokeColor=default;strokeWidth=3;align=center;verticalAlign=bottom;fontFamily=Helvetica;fontSize=11;fontColor=default;labelBackgroundColor=none;startArrow=none;startFill=0;endArrow=none;endFill=0;endSize=8;" edge="1" parent="1" source="E4xETqq9O236QGYNgDPt-1" target="EE8xmhr0xVJolNonWaJU-1">
          <mxGeometry relative="1" as="geometry" />
        </mxCell>
        <mxCell id="E4xETqq9O236QGYNgDPt-1" value="User&amp;nbsp;" style="shape=umlActor;verticalLabelPosition=bottom;verticalAlign=top;html=1;outlineConnect=0;fontFamily=Helvetica;fontSize=11;fontColor=default;labelBackgroundColor=none;" vertex="1" parent="1">
          <mxGeometry x="40" y="275" width="30" height="60" as="geometry" />
        </mxCell>
        <mxCell id="-1JsMiRYjEKP9Wfqknjd-1" value="Library Inventory MS" style="shape=umlActor;verticalLabelPosition=bottom;verticalAlign=top;html=1;outlineConnect=0;fontFamily=Helvetica;fontSize=11;fontColor=default;labelBackgroundColor=none;" vertex="1" parent="1">
          <mxGeometry x="610" y="290" width="30" height="60" as="geometry" />
        </mxCell>
        <mxCell id="-1JsMiRYjEKP9Wfqknjd-2" value="Library Account MS" style="shape=umlActor;verticalLabelPosition=bottom;verticalAlign=top;html=1;outlineConnect=0;fontFamily=Helvetica;fontSize=11;fontColor=default;labelBackgroundColor=none;" vertex="1" parent="1">
          <mxGeometry x="620" y="410" width="30" height="60" as="geometry" />
        </mxCell>
        <mxCell id="EE8xmhr0xVJolNonWaJU-1" value="Check Out Media&amp;nbsp;" style="ellipse;whiteSpace=wrap;html=1;" vertex="1" parent="1">
          <mxGeometry x="130" y="270" width="140" height="70" as="geometry" />
        </mxCell>
        <mxCell id="EE8xmhr0xVJolNonWaJU-3" value="Verify Account Status&amp;nbsp;" style="ellipse;whiteSpace=wrap;html=1;" vertex="1" parent="1">
          <mxGeometry x="280" y="390" width="140" height="70" as="geometry" />
        </mxCell>
        <mxCell id="EE8xmhr0xVJolNonWaJU-4" value="Check Items Status&amp;nbsp;" style="ellipse;whiteSpace=wrap;html=1;" vertex="1" parent="1">
          <mxGeometry x="300" y="210" width="140" height="70" as="geometry" />
        </mxCell>
        <mxCell id="EE8xmhr0xVJolNonWaJU-5" value="Mark item as Checked out in System" style="ellipse;whiteSpace=wrap;html=1;" vertex="1" parent="1">
          <mxGeometry x="330" y="310" width="140" height="70" as="geometry" />
        </mxCell>
        <mxCell id="EE8xmhr0xVJolNonWaJU-6" value="Assign Due Date to Item and Notify User" style="ellipse;whiteSpace=wrap;html=1;" vertex="1" parent="1">
          <mxGeometry x="410" y="460" width="140" height="70" as="geometry" />
        </mxCell>
        <mxCell id="ODWsMZMM73L3gyxmw_Ao-1" value="&amp;lt;&amp;lt;include&amp;gt;&amp;gt;" style="html=1;verticalAlign=bottom;labelBackgroundColor=none;endArrow=open;endFill=0;dashed=1;rounded=0;strokeColor=default;strokeWidth=3;align=center;fontFamily=Helvetica;fontSize=11;fontColor=default;endSize=8;entryX=0;entryY=0.5;entryDx=0;entryDy=0;" edge="1" parent="1" target="EE8xmhr0xVJolNonWaJU-3">
          <mxGeometry x="-0.1288" y="-34" width="160" relative="1" as="geometry">
            <mxPoint x="270" y="300" as="sourcePoint" />
            <mxPoint x="430" y="300" as="targetPoint" />
            <mxPoint as="offset" />
          </mxGeometry>
        </mxCell>
        <mxCell id="ODWsMZMM73L3gyxmw_Ao-2" value="&amp;lt;&amp;lt;include&amp;gt;&amp;gt;" style="html=1;verticalAlign=bottom;labelBackgroundColor=none;endArrow=open;endFill=0;dashed=1;rounded=0;strokeColor=default;strokeWidth=3;align=center;fontFamily=Helvetica;fontSize=11;fontColor=default;endSize=8;entryX=-0.026;entryY=0.663;entryDx=0;entryDy=0;exitX=1;exitY=0.5;exitDx=0;exitDy=0;entryPerimeter=0;" edge="1" parent="1" source="EE8xmhr0xVJolNonWaJU-1" target="EE8xmhr0xVJolNonWaJU-4">
          <mxGeometry x="-0.0595" y="25" width="160" relative="1" as="geometry">
            <mxPoint x="280" y="310" as="sourcePoint" />
            <mxPoint x="310" y="455" as="targetPoint" />
            <mxPoint as="offset" />
          </mxGeometry>
        </mxCell>
        <mxCell id="ODWsMZMM73L3gyxmw_Ao-3" value="&amp;lt;&amp;lt;extend&amp;gt;&amp;gt;" style="html=1;verticalAlign=bottom;labelBackgroundColor=none;endArrow=open;endFill=0;dashed=1;rounded=0;strokeColor=default;strokeWidth=3;align=center;fontFamily=Helvetica;fontSize=11;fontColor=default;endSize=8;exitX=0.5;exitY=1;exitDx=0;exitDy=0;entryX=0;entryY=0.5;entryDx=0;entryDy=0;" edge="1" parent="1" source="EE8xmhr0xVJolNonWaJU-3" target="EE8xmhr0xVJolNonWaJU-6">
          <mxGeometry x="0.3425" y="7" width="160" relative="1" as="geometry">
            <mxPoint x="170" y="540" as="sourcePoint" />
            <mxPoint x="330" y="540" as="targetPoint" />
            <mxPoint y="-1" as="offset" />
          </mxGeometry>
        </mxCell>
        <mxCell id="ODWsMZMM73L3gyxmw_Ao-4" value="" style="endArrow=none;html=1;rounded=0;strokeColor=default;strokeWidth=3;align=center;verticalAlign=bottom;fontFamily=Helvetica;fontSize=11;fontColor=default;labelBackgroundColor=none;endSize=8;" edge="1" parent="1" target="-1JsMiRYjEKP9Wfqknjd-2">
          <mxGeometry width="50" height="50" relative="1" as="geometry">
            <mxPoint x="540" y="480" as="sourcePoint" />
            <mxPoint x="580" y="480" as="targetPoint" />
          </mxGeometry>
        </mxCell>
        <mxCell id="ODWsMZMM73L3gyxmw_Ao-5" value="" style="endArrow=none;html=1;rounded=0;strokeColor=default;strokeWidth=3;align=center;verticalAlign=bottom;fontFamily=Helvetica;fontSize=11;fontColor=default;labelBackgroundColor=none;endSize=8;entryX=-0.017;entryY=0.394;entryDx=0;entryDy=0;entryPerimeter=0;" edge="1" parent="1" target="EE8xmhr0xVJolNonWaJU-5">
          <mxGeometry width="50" height="50" relative="1" as="geometry">
            <mxPoint x="270" y="309" as="sourcePoint" />
            <mxPoint x="310" y="309" as="targetPoint" />
          </mxGeometry>
        </mxCell>
        <mxCell id="ODWsMZMM73L3gyxmw_Ao-7" value="" style="endArrow=none;html=1;rounded=0;strokeColor=default;strokeWidth=3;align=center;verticalAlign=bottom;fontFamily=Helvetica;fontSize=11;fontColor=default;labelBackgroundColor=none;endSize=8;" edge="1" parent="1" target="-1JsMiRYjEKP9Wfqknjd-1">
          <mxGeometry width="50" height="50" relative="1" as="geometry">
            <mxPoint x="470" y="344.5" as="sourcePoint" />
            <mxPoint x="510" y="344.5" as="targetPoint" />
          </mxGeometry>
        </mxCell>
        <mxCell id="ODWsMZMM73L3gyxmw_Ao-8" value="" style="endArrow=none;html=1;rounded=0;strokeColor=default;strokeWidth=3;align=center;verticalAlign=bottom;fontFamily=Helvetica;fontSize=11;fontColor=default;labelBackgroundColor=none;endSize=8;exitX=0.997;exitY=0.737;exitDx=0;exitDy=0;exitPerimeter=0;entryX=0;entryY=0.3333333333333333;entryDx=0;entryDy=0;entryPerimeter=0;" edge="1" parent="1" source="EE8xmhr0xVJolNonWaJU-4" target="-1JsMiRYjEKP9Wfqknjd-1">
          <mxGeometry width="50" height="50" relative="1" as="geometry">
            <mxPoint x="460" y="237.5" as="sourcePoint" />
            <mxPoint x="620" y="280" as="targetPoint" />
          </mxGeometry>
        </mxCell>
        <mxCell id="ODWsMZMM73L3gyxmw_Ao-11" value="" style="edgeStyle=none;html=1;endSize=12;endArrow=block;endFill=0;rounded=0;strokeColor=default;strokeWidth=3;align=center;verticalAlign=bottom;fontFamily=Helvetica;fontSize=11;fontColor=default;labelBackgroundColor=none;exitX=0.331;exitY=-0.017;exitDx=0;exitDy=0;exitPerimeter=0;entryX=0.446;entryY=1.017;entryDx=0;entryDy=0;entryPerimeter=0;" edge="1" parent="1" source="EE8xmhr0xVJolNonWaJU-1" target="ODWsMZMM73L3gyxmw_Ao-14">
          <mxGeometry width="160" relative="1" as="geometry">
            <mxPoint x="160" y="240" as="sourcePoint" />
            <mxPoint x="176" y="210" as="targetPoint" />
          </mxGeometry>
        </mxCell>
        <mxCell id="ODWsMZMM73L3gyxmw_Ao-12" value="" style="edgeStyle=none;html=1;endSize=12;endArrow=block;endFill=0;rounded=0;strokeColor=default;strokeWidth=3;align=center;verticalAlign=bottom;fontFamily=Helvetica;fontSize=11;fontColor=default;labelBackgroundColor=none;" edge="1" parent="1" source="ODWsMZMM73L3gyxmw_Ao-13">
          <mxGeometry width="160" relative="1" as="geometry">
            <mxPoint x="180" y="340" as="sourcePoint" />
            <mxPoint x="180" y="400" as="targetPoint" />
          </mxGeometry>
        </mxCell>
        <mxCell id="ODWsMZMM73L3gyxmw_Ao-14" value="Check Out Digital Media&amp;nbsp;" style="ellipse;whiteSpace=wrap;html=1;" vertex="1" parent="1">
          <mxGeometry x="110" y="160" width="140" height="70" as="geometry" />
        </mxCell>
        <mxCell id="LZJFYRz5HHPZ6x7-f9U8-1" value="Check Out Media&amp;nbsp;" style="shape=note2;boundedLbl=1;whiteSpace=wrap;html=1;size=25;verticalAlign=top;align=center;fontFamily=Helvetica;fontSize=11;fontColor=default;labelBackgroundColor=none;" vertex="1" parent="1">
          <mxGeometry x="100" y="70" width="120" height="60" as="geometry" />
        </mxCell>
        <mxCell id="hzTV6NfNM5PU4wkWB_VM-1" value="" style="edgeStyle=none;html=1;endSize=12;endArrow=block;endFill=0;rounded=0;strokeColor=default;strokeWidth=3;align=center;verticalAlign=bottom;fontFamily=Helvetica;fontSize=11;fontColor=default;labelBackgroundColor=none;entryX=0.414;entryY=-0.023;entryDx=0;entryDy=0;entryPerimeter=0;" edge="1" parent="1" target="ODWsMZMM73L3gyxmw_Ao-13">
          <mxGeometry width="160" relative="1" as="geometry">
            <mxPoint x="180" y="340" as="sourcePoint" />
            <mxPoint x="180" y="400" as="targetPoint" />
          </mxGeometry>
        </mxCell>
        <mxCell id="ODWsMZMM73L3gyxmw_Ao-13" value="Check Out Paperback Media&amp;nbsp;" style="ellipse;whiteSpace=wrap;html=1;" vertex="1" parent="1">
          <mxGeometry x="120" y="380" width="140" height="70" as="geometry" />
        </mxCell>
      </root>
    </mxGraphModel>
  </diagram>
  <diagram id="v746OpkIGsZJCK_gO_1Z" name="reserve media UC">
    <mxGraphModel dx="1290" dy="621" grid="1" gridSize="10" guides="1" tooltips="1" connect="1" arrows="1" fold="1" page="1" pageScale="1" pageWidth="850" pageHeight="1100" math="0" shadow="0">
      <root>
        <mxCell id="0" />
        <mxCell id="1" parent="0" />
        <mxCell id="qcQuGFKoWhP6W9nzYPcA-1" value="" style="rounded=0;whiteSpace=wrap;html=1;fontFamily=Helvetica;fontSize=11;fontColor=default;labelBackgroundColor=none;" vertex="1" parent="1">
          <mxGeometry x="120" y="200" width="520" height="340" as="geometry" />
        </mxCell>
        <mxCell id="RZfgIFFY-wNeQ_OUkb0y-1" value="User&amp;nbsp;&lt;div&gt;&lt;br&gt;&lt;/div&gt;" style="shape=umlActor;verticalLabelPosition=bottom;verticalAlign=top;html=1;outlineConnect=0;fontFamily=Helvetica;fontSize=11;fontColor=default;labelBackgroundColor=none;" vertex="1" parent="1">
          <mxGeometry x="80" y="290" width="30" height="60" as="geometry" />
        </mxCell>
        <mxCell id="vFTbee53Z8UVuy-i8Eek-1" value="Library Notification System&amp;nbsp;&lt;div&gt;&lt;br&gt;&lt;/div&gt;" style="shape=umlActor;verticalLabelPosition=bottom;verticalAlign=top;html=1;outlineConnect=0;fontFamily=Helvetica;fontSize=11;fontColor=default;labelBackgroundColor=none;" vertex="1" parent="1">
          <mxGeometry x="710" y="400" width="30" height="60" as="geometry" />
        </mxCell>
        <mxCell id="vFTbee53Z8UVuy-i8Eek-2" value="Library Inventory MS" style="shape=umlActor;verticalLabelPosition=bottom;verticalAlign=top;html=1;outlineConnect=0;fontFamily=Helvetica;fontSize=11;fontColor=default;labelBackgroundColor=none;" vertex="1" parent="1">
          <mxGeometry x="680" y="265" width="30" height="60" as="geometry" />
        </mxCell>
        <mxCell id="RgtVrzugtrf32iLTcOjr-2" value="Reserve Media&amp;nbsp;&lt;div&gt;&lt;br&gt;&lt;/div&gt;" style="ellipse;whiteSpace=wrap;html=1;fontFamily=Helvetica;fontSize=11;fontColor=default;labelBackgroundColor=none;" vertex="1" parent="1">
          <mxGeometry x="140" y="290" width="140" height="70" as="geometry" />
        </mxCell>
        <mxCell id="XWdfHLB7_FFWeV1UYGlh-1" value="" style="endArrow=none;html=1;rounded=0;strokeColor=default;strokeWidth=3;align=center;verticalAlign=bottom;fontFamily=Helvetica;fontSize=11;fontColor=default;labelBackgroundColor=none;endSize=8;entryX=0;entryY=0.5;entryDx=0;entryDy=0;" edge="1" parent="1">
          <mxGeometry width="50" height="50" relative="1" as="geometry">
            <mxPoint x="100" y="324.5" as="sourcePoint" />
            <mxPoint x="140" y="324.5" as="targetPoint" />
          </mxGeometry>
        </mxCell>
        <mxCell id="XWdfHLB7_FFWeV1UYGlh-2" value="&lt;div&gt;Check Item Availibility&amp;nbsp;&lt;/div&gt;" style="ellipse;whiteSpace=wrap;html=1;fontFamily=Helvetica;fontSize=11;fontColor=default;labelBackgroundColor=none;" vertex="1" parent="1">
          <mxGeometry x="270" y="230" width="140" height="70" as="geometry" />
        </mxCell>
        <mxCell id="8FRGgJq5liBmteU_wbb7-13" value="" style="edgeStyle=none;shape=connector;rounded=0;orthogonalLoop=1;jettySize=auto;html=1;strokeColor=default;strokeWidth=3;align=center;verticalAlign=bottom;fontFamily=Helvetica;fontSize=11;fontColor=default;labelBackgroundColor=none;startArrow=none;startFill=0;endArrow=none;endFill=0;endSize=8;" edge="1" parent="1" source="XWdfHLB7_FFWeV1UYGlh-3" target="vFTbee53Z8UVuy-i8Eek-2">
          <mxGeometry relative="1" as="geometry" />
        </mxCell>
        <mxCell id="XWdfHLB7_FFWeV1UYGlh-3" value="Record Reservation into DB&lt;div&gt;&lt;br&gt;&lt;/div&gt;" style="ellipse;whiteSpace=wrap;html=1;fontFamily=Helvetica;fontSize=11;fontColor=default;labelBackgroundColor=none;" vertex="1" parent="1">
          <mxGeometry x="420" y="260" width="140" height="70" as="geometry" />
        </mxCell>
        <mxCell id="XWdfHLB7_FFWeV1UYGlh-4" value="&lt;div&gt;Confirm/Notify Reservation to user of sucsess.&amp;nbsp;&lt;/div&gt;" style="ellipse;whiteSpace=wrap;html=1;fontFamily=Helvetica;fontSize=11;fontColor=default;labelBackgroundColor=none;" vertex="1" parent="1">
          <mxGeometry x="260" y="360" width="140" height="70" as="geometry" />
        </mxCell>
        <mxCell id="T6Lf9i02wIgk03HHRrkj-1" value="&lt;div&gt;Prompt User of OverDue Fines/ Resolve Issue&lt;/div&gt;" style="ellipse;whiteSpace=wrap;html=1;fontFamily=Helvetica;fontSize=11;fontColor=default;labelBackgroundColor=none;" vertex="1" parent="1">
          <mxGeometry x="430" y="460" width="140" height="70" as="geometry" />
        </mxCell>
        <mxCell id="8FRGgJq5liBmteU_wbb7-1" value="&amp;lt;&amp;lt;extend&amp;gt;&amp;gt;" style="html=1;verticalAlign=bottom;labelBackgroundColor=none;endArrow=open;endFill=0;dashed=1;rounded=0;strokeColor=default;strokeWidth=3;align=center;fontFamily=Helvetica;fontSize=11;fontColor=default;endSize=8;exitX=0.5;exitY=1;exitDx=0;exitDy=0;entryX=0;entryY=0.5;entryDx=0;entryDy=0;" edge="1" parent="1" source="XWdfHLB7_FFWeV1UYGlh-4" target="T6Lf9i02wIgk03HHRrkj-1">
          <mxGeometry x="0.3425" y="7" width="160" relative="1" as="geometry">
            <mxPoint x="415" y="500" as="sourcePoint" />
            <mxPoint x="470" y="525" as="targetPoint" />
            <mxPoint y="-1" as="offset" />
          </mxGeometry>
        </mxCell>
        <mxCell id="8FRGgJq5liBmteU_wbb7-2" value="Notify User of Backend Internal Error" style="ellipse;whiteSpace=wrap;html=1;fontFamily=Helvetica;fontSize=11;fontColor=default;labelBackgroundColor=none;" vertex="1" parent="1">
          <mxGeometry x="480" y="370" width="140" height="70" as="geometry" />
        </mxCell>
        <mxCell id="8FRGgJq5liBmteU_wbb7-3" value="&amp;lt;&amp;lt;extend&amp;gt;&amp;gt;" style="html=1;verticalAlign=bottom;labelBackgroundColor=none;endArrow=open;endFill=0;dashed=1;rounded=0;strokeColor=default;strokeWidth=3;align=center;fontFamily=Helvetica;fontSize=11;fontColor=default;endSize=8;entryX=0.029;entryY=0.76;entryDx=0;entryDy=0;entryPerimeter=0;" edge="1" parent="1" source="XWdfHLB7_FFWeV1UYGlh-4" target="8FRGgJq5liBmteU_wbb7-2">
          <mxGeometry x="-0.3061" y="17" width="160" relative="1" as="geometry">
            <mxPoint x="280" y="465" as="sourcePoint" />
            <mxPoint x="335" y="500" as="targetPoint" />
            <mxPoint as="offset" />
          </mxGeometry>
        </mxCell>
        <mxCell id="8FRGgJq5liBmteU_wbb7-5" value="" style="endArrow=none;html=1;rounded=0;strokeColor=default;strokeWidth=3;align=center;verticalAlign=bottom;fontFamily=Helvetica;fontSize=11;fontColor=default;labelBackgroundColor=none;endSize=8;exitX=1;exitY=0.5;exitDx=0;exitDy=0;" edge="1" parent="1" source="T6Lf9i02wIgk03HHRrkj-1">
          <mxGeometry width="50" height="50" relative="1" as="geometry">
            <mxPoint x="620" y="534.5" as="sourcePoint" />
            <mxPoint x="710" y="430" as="targetPoint" />
          </mxGeometry>
        </mxCell>
        <mxCell id="8FRGgJq5liBmteU_wbb7-6" value="" style="endArrow=none;html=1;rounded=0;strokeColor=default;strokeWidth=3;align=center;verticalAlign=bottom;fontFamily=Helvetica;fontSize=11;fontColor=default;labelBackgroundColor=none;endSize=8;exitX=1;exitY=0.5;exitDx=0;exitDy=0;" edge="1" parent="1" target="vFTbee53Z8UVuy-i8Eek-1">
          <mxGeometry width="50" height="50" relative="1" as="geometry">
            <mxPoint x="610" y="405" as="sourcePoint" />
            <mxPoint x="670" y="320" as="targetPoint" />
          </mxGeometry>
        </mxCell>
        <mxCell id="8FRGgJq5liBmteU_wbb7-7" value="" style="endArrow=none;html=1;rounded=0;strokeColor=default;strokeWidth=3;align=center;verticalAlign=bottom;fontFamily=Helvetica;fontSize=11;fontColor=default;labelBackgroundColor=none;endSize=8;entryX=0;entryY=0.5;entryDx=0;entryDy=0;exitX=0.734;exitY=0.954;exitDx=0;exitDy=0;exitPerimeter=0;" edge="1" parent="1" source="RgtVrzugtrf32iLTcOjr-2" target="XWdfHLB7_FFWeV1UYGlh-4">
          <mxGeometry width="50" height="50" relative="1" as="geometry">
            <mxPoint x="260" y="420" as="sourcePoint" />
            <mxPoint x="300" y="420" as="targetPoint" />
          </mxGeometry>
        </mxCell>
        <mxCell id="8FRGgJq5liBmteU_wbb7-8" value="" style="endArrow=none;html=1;rounded=0;strokeColor=default;strokeWidth=3;align=center;verticalAlign=bottom;fontFamily=Helvetica;fontSize=11;fontColor=default;labelBackgroundColor=none;endSize=8;entryX=0.04;entryY=0.811;entryDx=0;entryDy=0;entryPerimeter=0;" edge="1" parent="1" source="RgtVrzugtrf32iLTcOjr-2" target="XWdfHLB7_FFWeV1UYGlh-2">
          <mxGeometry width="50" height="50" relative="1" as="geometry">
            <mxPoint x="230" y="190" as="sourcePoint" />
            <mxPoint x="297" y="268" as="targetPoint" />
          </mxGeometry>
        </mxCell>
        <mxCell id="8FRGgJq5liBmteU_wbb7-11" value="" style="endArrow=none;html=1;rounded=0;strokeColor=default;strokeWidth=3;align=center;verticalAlign=bottom;fontFamily=Helvetica;fontSize=11;fontColor=default;labelBackgroundColor=none;endSize=8;entryX=0.994;entryY=0.674;entryDx=0;entryDy=0;entryPerimeter=0;" edge="1" parent="1" source="XWdfHLB7_FFWeV1UYGlh-3" target="XWdfHLB7_FFWeV1UYGlh-2">
          <mxGeometry width="50" height="50" relative="1" as="geometry">
            <mxPoint x="365" y="337" as="sourcePoint" />
            <mxPoint x="460" y="240" as="targetPoint" />
          </mxGeometry>
        </mxCell>
        <mxCell id="8FRGgJq5liBmteU_wbb7-14" value="Reserve Media&amp;nbsp;" style="shape=note2;boundedLbl=1;whiteSpace=wrap;html=1;size=25;verticalAlign=top;align=center;fontFamily=Helvetica;fontSize=11;fontColor=default;labelBackgroundColor=none;" vertex="1" parent="1">
          <mxGeometry x="150" y="130" width="120" height="60" as="geometry" />
        </mxCell>
      </root>
    </mxGraphModel>
  </diagram>
  <diagram id="j1VsD9glsDT1gJY505fo" name="Pay Fines UC">
    <mxGraphModel dx="1290" dy="621" grid="1" gridSize="10" guides="1" tooltips="1" connect="1" arrows="1" fold="1" page="1" pageScale="1" pageWidth="850" pageHeight="1100" math="0" shadow="0">
      <root>
        <mxCell id="0" />
        <mxCell id="1" parent="0" />
        <mxCell id="lTxYoMNWHg1iqFX7Ktbe-2" value="" style="rounded=0;whiteSpace=wrap;html=1;fontFamily=Helvetica;fontSize=11;fontColor=default;labelBackgroundColor=none;" vertex="1" parent="1">
          <mxGeometry x="90" y="150" width="620" height="340" as="geometry" />
        </mxCell>
        <mxCell id="ps2-47y2RLVDWLR1Tz0R-1" value="User" style="shape=umlActor;verticalLabelPosition=bottom;verticalAlign=top;html=1;fontFamily=Helvetica;fontSize=11;fontColor=default;labelBackgroundColor=none;" vertex="1" parent="1">
          <mxGeometry x="30" y="285" width="30" height="60" as="geometry" />
        </mxCell>
        <mxCell id="lTxYoMNWHg1iqFX7Ktbe-1" value="" style="edgeStyle=none;shape=connector;rounded=0;orthogonalLoop=1;jettySize=auto;html=1;strokeColor=default;strokeWidth=3;align=center;verticalAlign=bottom;fontFamily=Helvetica;fontSize=11;fontColor=default;labelBackgroundColor=none;startArrow=none;startFill=0;endArrow=none;endFill=0;endSize=8;" edge="1" parent="1" source="ps2-47y2RLVDWLR1Tz0R-2" target="QDXRfjPMxeBYnl9L-VC2-4">
          <mxGeometry relative="1" as="geometry" />
        </mxCell>
        <mxCell id="ps2-47y2RLVDWLR1Tz0R-2" value="Payment Processor (Paypal)" style="shape=umlActor;verticalLabelPosition=bottom;verticalAlign=top;html=1;fontFamily=Helvetica;fontSize=11;fontColor=default;labelBackgroundColor=none;" vertex="1" parent="1">
          <mxGeometry x="770" y="170" width="30" height="60" as="geometry" />
        </mxCell>
        <mxCell id="QDXRfjPMxeBYnl9L-VC2-1" value="Library Account MS" style="shape=umlActor;verticalLabelPosition=bottom;verticalAlign=top;html=1;outlineConnect=0;fontFamily=Helvetica;fontSize=11;fontColor=default;labelBackgroundColor=none;" vertex="1" parent="1">
          <mxGeometry x="750" y="410" width="30" height="60" as="geometry" />
        </mxCell>
        <mxCell id="AjLzKhlOD2berXmg8r5Y-2" value="" style="edgeStyle=none;shape=connector;rounded=0;orthogonalLoop=1;jettySize=auto;html=1;strokeColor=default;strokeWidth=3;align=center;verticalAlign=bottom;fontFamily=Helvetica;fontSize=11;fontColor=default;labelBackgroundColor=none;startArrow=none;startFill=0;endArrow=none;endFill=0;endSize=8;entryX=0;entryY=0.5;entryDx=0;entryDy=0;" edge="1" parent="1" source="QDXRfjPMxeBYnl9L-VC2-2" target="QDXRfjPMxeBYnl9L-VC2-3">
          <mxGeometry relative="1" as="geometry" />
        </mxCell>
        <mxCell id="QDXRfjPMxeBYnl9L-VC2-2" value="User Selects Pay Fine" style="ellipse;whiteSpace=wrap;html=1;fontFamily=Helvetica;fontSize=11;fontColor=default;labelBackgroundColor=none;" vertex="1" parent="1">
          <mxGeometry x="120" y="290" width="140" height="70" as="geometry" />
        </mxCell>
        <mxCell id="QDXRfjPMxeBYnl9L-VC2-3" value="Check Outstadning Fine Balance&amp;nbsp;" style="ellipse;whiteSpace=wrap;html=1;fontFamily=Helvetica;fontSize=11;fontColor=default;labelBackgroundColor=none;" vertex="1" parent="1">
          <mxGeometry x="280" y="280" width="140" height="70" as="geometry" />
        </mxCell>
        <mxCell id="QDXRfjPMxeBYnl9L-VC2-4" value="Confirm Payment" style="ellipse;whiteSpace=wrap;html=1;fontFamily=Helvetica;fontSize=11;fontColor=default;labelBackgroundColor=none;" vertex="1" parent="1">
          <mxGeometry x="500" y="170" width="140" height="70" as="geometry" />
        </mxCell>
        <mxCell id="QDXRfjPMxeBYnl9L-VC2-5" value="User Selects Payment Method" style="ellipse;whiteSpace=wrap;html=1;fontFamily=Helvetica;fontSize=11;fontColor=default;labelBackgroundColor=none;" vertex="1" parent="1">
          <mxGeometry x="460" y="280" width="140" height="70" as="geometry" />
        </mxCell>
        <mxCell id="QDXRfjPMxeBYnl9L-VC2-6" value="Prompt User Of Error In Payment Process" style="ellipse;whiteSpace=wrap;html=1;fontFamily=Helvetica;fontSize=11;fontColor=default;labelBackgroundColor=none;" vertex="1" parent="1">
          <mxGeometry x="390" y="410" width="140" height="70" as="geometry" />
        </mxCell>
        <mxCell id="QDXRfjPMxeBYnl9L-VC2-7" value="Update Account Balance&amp;nbsp;&amp;nbsp;" style="ellipse;whiteSpace=wrap;html=1;fontFamily=Helvetica;fontSize=11;fontColor=default;labelBackgroundColor=none;" vertex="1" parent="1">
          <mxGeometry x="560" y="390" width="140" height="70" as="geometry" />
        </mxCell>
        <mxCell id="AjLzKhlOD2berXmg8r5Y-1" value="" style="endArrow=none;html=1;rounded=0;strokeColor=default;strokeWidth=3;align=center;verticalAlign=bottom;fontFamily=Helvetica;fontSize=11;fontColor=default;labelBackgroundColor=none;endSize=8;entryX=0;entryY=0.5;entryDx=0;entryDy=0;exitX=0.827;exitY=0.713;exitDx=0;exitDy=0;exitPerimeter=0;" edge="1" parent="1" source="ps2-47y2RLVDWLR1Tz0R-1" target="QDXRfjPMxeBYnl9L-VC2-2">
          <mxGeometry width="50" height="50" relative="1" as="geometry">
            <mxPoint x="100" y="324.5" as="sourcePoint" />
            <mxPoint x="140" y="324.5" as="targetPoint" />
          </mxGeometry>
        </mxCell>
        <mxCell id="TyTKtcxcHzDDMN25J8KM-1" value="&amp;lt;&amp;lt;extend&amp;gt;&amp;gt;" style="html=1;verticalAlign=bottom;labelBackgroundColor=none;endArrow=open;endFill=0;dashed=1;rounded=0;strokeColor=default;strokeWidth=3;align=center;fontFamily=Helvetica;fontSize=11;fontColor=default;endSize=8;entryX=0.677;entryY=-0.011;entryDx=0;entryDy=0;entryPerimeter=0;exitX=0.26;exitY=1.017;exitDx=0;exitDy=0;exitPerimeter=0;" edge="1" parent="1" source="QDXRfjPMxeBYnl9L-VC2-5" target="QDXRfjPMxeBYnl9L-VC2-6">
          <mxGeometry x="0.1959" y="-30" width="160" relative="1" as="geometry">
            <mxPoint x="370" y="416" as="sourcePoint" />
            <mxPoint x="435" y="410" as="targetPoint" />
            <mxPoint as="offset" />
          </mxGeometry>
        </mxCell>
        <mxCell id="TyTKtcxcHzDDMN25J8KM-2" value="" style="edgeStyle=none;shape=connector;rounded=0;orthogonalLoop=1;jettySize=auto;html=1;strokeColor=default;strokeWidth=3;align=center;verticalAlign=bottom;fontFamily=Helvetica;fontSize=11;fontColor=default;labelBackgroundColor=none;startArrow=none;startFill=0;endArrow=none;endFill=0;endSize=8;exitX=0.986;exitY=0.629;exitDx=0;exitDy=0;exitPerimeter=0;entryX=0;entryY=0.5;entryDx=0;entryDy=0;" edge="1" parent="1" source="QDXRfjPMxeBYnl9L-VC2-3" target="QDXRfjPMxeBYnl9L-VC2-5">
          <mxGeometry relative="1" as="geometry">
            <mxPoint x="410" y="266" as="sourcePoint" />
            <mxPoint x="440" y="244" as="targetPoint" />
          </mxGeometry>
        </mxCell>
        <mxCell id="TyTKtcxcHzDDMN25J8KM-4" value="" style="edgeStyle=none;shape=connector;rounded=0;orthogonalLoop=1;jettySize=auto;html=1;strokeColor=default;strokeWidth=3;align=center;verticalAlign=bottom;fontFamily=Helvetica;fontSize=11;fontColor=default;labelBackgroundColor=none;startArrow=none;startFill=0;endArrow=none;endFill=0;endSize=8;exitX=0.5;exitY=1;exitDx=0;exitDy=0;entryX=0.3;entryY=-0.029;entryDx=0;entryDy=0;entryPerimeter=0;" edge="1" parent="1" source="QDXRfjPMxeBYnl9L-VC2-5" target="QDXRfjPMxeBYnl9L-VC2-7">
          <mxGeometry relative="1" as="geometry">
            <mxPoint x="640" y="370" as="sourcePoint" />
            <mxPoint x="662" y="371" as="targetPoint" />
          </mxGeometry>
        </mxCell>
        <mxCell id="TyTKtcxcHzDDMN25J8KM-5" value="" style="edgeStyle=none;shape=connector;rounded=0;orthogonalLoop=1;jettySize=auto;html=1;strokeColor=default;strokeWidth=3;align=center;verticalAlign=bottom;fontFamily=Helvetica;fontSize=11;fontColor=default;labelBackgroundColor=none;startArrow=none;startFill=0;endArrow=none;endFill=0;endSize=8;exitX=0.5;exitY=1;exitDx=0;exitDy=0;entryX=0.557;entryY=-0.029;entryDx=0;entryDy=0;entryPerimeter=0;" edge="1" parent="1" source="QDXRfjPMxeBYnl9L-VC2-4" target="QDXRfjPMxeBYnl9L-VC2-5">
          <mxGeometry relative="1" as="geometry">
            <mxPoint x="640" y="269" as="sourcePoint" />
            <mxPoint x="654" y="300" as="targetPoint" />
          </mxGeometry>
        </mxCell>
        <mxCell id="TyTKtcxcHzDDMN25J8KM-6" value="" style="edgeStyle=none;shape=connector;rounded=0;orthogonalLoop=1;jettySize=auto;html=1;strokeColor=default;strokeWidth=3;align=center;verticalAlign=bottom;fontFamily=Helvetica;fontSize=11;fontColor=default;labelBackgroundColor=none;startArrow=none;startFill=0;endArrow=none;endFill=0;endSize=8;exitX=0.5;exitY=1;exitDx=0;exitDy=0;entryX=0.5;entryY=0.5;entryDx=0;entryDy=0;entryPerimeter=0;" edge="1" parent="1" target="QDXRfjPMxeBYnl9L-VC2-1">
          <mxGeometry relative="1" as="geometry">
            <mxPoint x="690" y="440" as="sourcePoint" />
            <mxPoint x="750" y="470" as="targetPoint" />
          </mxGeometry>
        </mxCell>
        <mxCell id="TyTKtcxcHzDDMN25J8KM-8" value="Pay Fines&lt;div&gt;&lt;br&gt;&lt;/div&gt;" style="shape=note2;boundedLbl=1;whiteSpace=wrap;html=1;size=25;verticalAlign=top;align=center;fontFamily=Helvetica;fontSize=11;fontColor=default;labelBackgroundColor=none;" vertex="1" parent="1">
          <mxGeometry x="110" y="80" width="120" height="60" as="geometry" />
        </mxCell>
      </root>
    </mxGraphModel>
  </diagram>
  <diagram id="pf-yfDEdasjGgEQDpoSF" name="Renew Media UC">
    <mxGraphModel dx="1613" dy="776" grid="1" gridSize="10" guides="1" tooltips="1" connect="1" arrows="1" fold="1" page="1" pageScale="1" pageWidth="850" pageHeight="1100" math="0" shadow="0">
      <root>
        <mxCell id="0" />
        <mxCell id="1" parent="0" />
        <mxCell id="y3mKM4_f2V9xr3Qr5IK9-1" value="" style="rounded=0;whiteSpace=wrap;html=1;fontFamily=Helvetica;fontSize=11;fontColor=default;labelBackgroundColor=none;" vertex="1" parent="1">
          <mxGeometry x="120" y="190" width="840" height="420" as="geometry" />
        </mxCell>
        <mxCell id="Uqj2EvIqPUeRt6tuAwLF-1" value="User&amp;nbsp;" style="shape=umlActor;verticalLabelPosition=bottom;verticalAlign=top;html=1;fontFamily=Helvetica;fontSize=11;fontColor=default;labelBackgroundColor=none;" vertex="1" parent="1">
          <mxGeometry x="50" y="330" width="30" height="60" as="geometry" />
        </mxCell>
        <mxCell id="Oa58SVXz5y3qmALPeuMQ-1" value="Library Inventory MS" style="shape=umlActor;verticalLabelPosition=bottom;verticalAlign=top;html=1;outlineConnect=0;fontFamily=Helvetica;fontSize=11;fontColor=default;labelBackgroundColor=none;" vertex="1" parent="1">
          <mxGeometry x="1020" y="250" width="30" height="60" as="geometry" />
        </mxCell>
        <mxCell id="_UYqKENVvWupZiArDN9r-1" value="Library Account MS" style="shape=umlActor;verticalLabelPosition=bottom;verticalAlign=top;html=1;outlineConnect=0;fontFamily=Helvetica;fontSize=11;fontColor=default;labelBackgroundColor=none;" vertex="1" parent="1">
          <mxGeometry x="1020" y="400" width="30" height="60" as="geometry" />
        </mxCell>
        <mxCell id="_UYqKENVvWupZiArDN9r-2" value="User Selects Item for Renewal" style="ellipse;whiteSpace=wrap;html=1;fontFamily=Helvetica;fontSize=11;fontColor=default;labelBackgroundColor=none;" vertex="1" parent="1">
          <mxGeometry x="130" y="330" width="140" height="70" as="geometry" />
        </mxCell>
        <mxCell id="_UYqKENVvWupZiArDN9r-3" value="System Extends Due Date On User Account" style="ellipse;whiteSpace=wrap;html=1;fontFamily=Helvetica;fontSize=11;fontColor=default;labelBackgroundColor=none;" vertex="1" parent="1">
          <mxGeometry x="470" y="325" width="140" height="70" as="geometry" />
        </mxCell>
        <mxCell id="_UYqKENVvWupZiArDN9r-4" value="System informs user item is not available to renew." style="ellipse;whiteSpace=wrap;html=1;fontFamily=Helvetica;fontSize=11;fontColor=default;labelBackgroundColor=none;" vertex="1" parent="1">
          <mxGeometry x="285" y="210" width="140" height="70" as="geometry" />
        </mxCell>
        <mxCell id="nEvQibTySijfKDTo-2vv-1" value="" style="endArrow=none;html=1;rounded=0;strokeColor=default;strokeWidth=3;align=center;verticalAlign=bottom;fontFamily=Helvetica;fontSize=11;fontColor=default;labelBackgroundColor=none;endSize=8;entryX=0;entryY=0.5;entryDx=0;entryDy=0;" edge="1" parent="1" source="Uqj2EvIqPUeRt6tuAwLF-1" target="_UYqKENVvWupZiArDN9r-2">
          <mxGeometry width="50" height="50" relative="1" as="geometry">
            <mxPoint x="95" y="333" as="sourcePoint" />
            <mxPoint x="150" y="335" as="targetPoint" />
          </mxGeometry>
        </mxCell>
        <mxCell id="nEvQibTySijfKDTo-2vv-2" value="" style="endArrow=none;html=1;rounded=0;strokeColor=default;strokeWidth=3;align=center;verticalAlign=bottom;fontFamily=Helvetica;fontSize=11;fontColor=default;labelBackgroundColor=none;endSize=8;entryX=0;entryY=0.5;entryDx=0;entryDy=0;exitX=1;exitY=0.5;exitDx=0;exitDy=0;" edge="1" parent="1" source="_UYqKENVvWupZiArDN9r-2" target="_UYqKENVvWupZiArDN9r-5">
          <mxGeometry width="50" height="50" relative="1" as="geometry">
            <mxPoint x="270" y="400" as="sourcePoint" />
            <mxPoint x="320" y="419" as="targetPoint" />
          </mxGeometry>
        </mxCell>
        <mxCell id="nEvQibTySijfKDTo-2vv-3" value="&amp;lt;&amp;lt;include&amp;gt;&amp;gt;" style="html=1;verticalAlign=bottom;labelBackgroundColor=none;endArrow=open;endFill=0;dashed=1;rounded=0;strokeColor=default;strokeWidth=3;align=center;fontFamily=Helvetica;fontSize=11;fontColor=default;endSize=8;exitX=0.5;exitY=0;exitDx=0;exitDy=0;entryX=0.5;entryY=1;entryDx=0;entryDy=0;" edge="1" parent="1" source="_UYqKENVvWupZiArDN9r-5" target="_UYqKENVvWupZiArDN9r-4">
          <mxGeometry x="-0.0891" y="28" width="160" relative="1" as="geometry">
            <mxPoint x="370" y="300" as="sourcePoint" />
            <mxPoint x="530" y="300" as="targetPoint" />
            <mxPoint as="offset" />
          </mxGeometry>
        </mxCell>
        <mxCell id="nEvQibTySijfKDTo-2vv-4" value="&amp;lt;&amp;lt;include&amp;gt;&amp;gt;" style="html=1;verticalAlign=bottom;labelBackgroundColor=none;endArrow=open;endFill=0;dashed=1;rounded=0;strokeColor=default;strokeWidth=3;align=center;fontFamily=Helvetica;fontSize=11;fontColor=default;endSize=8;exitX=0.32;exitY=1.017;exitDx=0;exitDy=0;exitPerimeter=0;" edge="1" parent="1" source="_UYqKENVvWupZiArDN9r-3">
          <mxGeometry x="-0.0891" y="28" width="160" relative="1" as="geometry">
            <mxPoint x="465" y="470" as="sourcePoint" />
            <mxPoint x="495" y="460" as="targetPoint" />
            <mxPoint as="offset" />
          </mxGeometry>
        </mxCell>
        <mxCell id="nEvQibTySijfKDTo-2vv-5" value="System informs user&amp;nbsp; Renewal Process Fails." style="ellipse;whiteSpace=wrap;html=1;fontFamily=Helvetica;fontSize=11;fontColor=default;labelBackgroundColor=none;" vertex="1" parent="1">
          <mxGeometry x="420" y="460" width="140" height="70" as="geometry" />
        </mxCell>
        <mxCell id="_UYqKENVvWupZiArDN9r-5" value="System Checks for Item Renewal Availibility" style="ellipse;whiteSpace=wrap;html=1;fontFamily=Helvetica;fontSize=11;fontColor=default;labelBackgroundColor=none;" vertex="1" parent="1">
          <mxGeometry x="290" y="330" width="140" height="70" as="geometry" />
        </mxCell>
        <mxCell id="nEvQibTySijfKDTo-2vv-8" value="" style="endArrow=none;html=1;rounded=0;strokeColor=default;strokeWidth=3;align=center;verticalAlign=bottom;fontFamily=Helvetica;fontSize=11;fontColor=default;labelBackgroundColor=none;endSize=8;entryX=0;entryY=0.5;entryDx=0;entryDy=0;exitX=1.014;exitY=0.406;exitDx=0;exitDy=0;exitPerimeter=0;" edge="1" parent="1" source="_UYqKENVvWupZiArDN9r-5" target="_UYqKENVvWupZiArDN9r-3">
          <mxGeometry width="50" height="50" relative="1" as="geometry">
            <mxPoint x="450" y="330" as="sourcePoint" />
            <mxPoint x="480" y="330" as="targetPoint" />
          </mxGeometry>
        </mxCell>
        <mxCell id="nEvQibTySijfKDTo-2vv-11" value="" style="edgeStyle=none;shape=connector;rounded=0;orthogonalLoop=1;jettySize=auto;html=1;strokeColor=default;strokeWidth=3;align=center;verticalAlign=bottom;fontFamily=Helvetica;fontSize=11;fontColor=default;labelBackgroundColor=none;startArrow=none;startFill=0;endArrow=none;endFill=0;endSize=8;" edge="1" parent="1" source="nEvQibTySijfKDTo-2vv-9" target="_UYqKENVvWupZiArDN9r-3">
          <mxGeometry relative="1" as="geometry" />
        </mxCell>
        <mxCell id="nEvQibTySijfKDTo-2vv-9" value="System Updates User Account with new transaction." style="ellipse;whiteSpace=wrap;html=1;fontFamily=Helvetica;fontSize=11;fontColor=default;labelBackgroundColor=none;" vertex="1" parent="1">
          <mxGeometry x="620" y="330" width="140" height="70" as="geometry" />
        </mxCell>
        <mxCell id="nEvQibTySijfKDTo-2vv-13" value="User is Informed of Sucsesssful Renewal/ Due Date" style="ellipse;whiteSpace=wrap;html=1;fontFamily=Helvetica;fontSize=11;fontColor=default;labelBackgroundColor=none;" vertex="1" parent="1">
          <mxGeometry x="790" y="325" width="140" height="70" as="geometry" />
        </mxCell>
        <mxCell id="nEvQibTySijfKDTo-2vv-14" value="" style="endArrow=none;html=1;rounded=0;strokeColor=default;strokeWidth=3;align=center;verticalAlign=bottom;fontFamily=Helvetica;fontSize=11;fontColor=default;labelBackgroundColor=none;endSize=8;exitX=1.014;exitY=0.406;exitDx=0;exitDy=0;exitPerimeter=0;" edge="1" parent="1">
          <mxGeometry width="50" height="50" relative="1" as="geometry">
            <mxPoint x="760" y="364" as="sourcePoint" />
            <mxPoint x="790" y="360" as="targetPoint" />
          </mxGeometry>
        </mxCell>
        <mxCell id="nEvQibTySijfKDTo-2vv-15" value="" style="endArrow=none;html=1;rounded=0;strokeColor=default;strokeWidth=3;align=center;verticalAlign=bottom;fontFamily=Helvetica;fontSize=11;fontColor=default;labelBackgroundColor=none;endSize=8;exitX=0.977;exitY=0.386;exitDx=0;exitDy=0;exitPerimeter=0;" edge="1" parent="1" source="nEvQibTySijfKDTo-2vv-13" target="Oa58SVXz5y3qmALPeuMQ-1">
          <mxGeometry width="50" height="50" relative="1" as="geometry">
            <mxPoint x="942" y="350" as="sourcePoint" />
            <mxPoint x="980" y="352" as="targetPoint" />
          </mxGeometry>
        </mxCell>
        <mxCell id="nEvQibTySijfKDTo-2vv-16" value="" style="endArrow=none;html=1;rounded=0;strokeColor=default;strokeWidth=3;align=center;verticalAlign=bottom;fontFamily=Helvetica;fontSize=11;fontColor=default;labelBackgroundColor=none;endSize=8;exitX=0.989;exitY=0.774;exitDx=0;exitDy=0;exitPerimeter=0;" edge="1" parent="1" source="nEvQibTySijfKDTo-2vv-13" target="_UYqKENVvWupZiArDN9r-1">
          <mxGeometry width="50" height="50" relative="1" as="geometry">
            <mxPoint x="937" y="362" as="sourcePoint" />
            <mxPoint x="1000" y="320" as="targetPoint" />
          </mxGeometry>
        </mxCell>
        <mxCell id="nEvQibTySijfKDTo-2vv-18" value="Renew Media&amp;nbsp;" style="shape=note2;boundedLbl=1;whiteSpace=wrap;html=1;size=25;verticalAlign=top;align=center;fontFamily=Helvetica;fontSize=11;fontColor=default;labelBackgroundColor=none;" vertex="1" parent="1">
          <mxGeometry x="150" y="120" width="120" height="60" as="geometry" />
        </mxCell>
      </root>
    </mxGraphModel>
  </diagram>
  <diagram id="CjfHOAJg7U1e2dOPiyYH" name="View Account Information UC">
    <mxGraphModel dx="1290" dy="621" grid="1" gridSize="10" guides="1" tooltips="1" connect="1" arrows="1" fold="1" page="1" pageScale="1" pageWidth="850" pageHeight="1100" math="0" shadow="0">
      <root>
        <mxCell id="0" />
        <mxCell id="1" parent="0" />
        <mxCell id="90j9n6_rTpCN_te_Roh1-1" value="" style="rounded=0;whiteSpace=wrap;html=1;fontFamily=Helvetica;fontSize=11;fontColor=default;labelBackgroundColor=none;" vertex="1" parent="1">
          <mxGeometry x="130" y="170" width="680" height="310" as="geometry" />
        </mxCell>
        <mxCell id="71o3AYozCaryOWKUwThR-1" value="View Account Information" style="shape=note2;boundedLbl=1;whiteSpace=wrap;html=1;size=25;verticalAlign=top;align=center;fontFamily=Helvetica;fontSize=11;fontColor=default;labelBackgroundColor=none;" vertex="1" parent="1">
          <mxGeometry x="140" y="100" width="120" height="60" as="geometry" />
        </mxCell>
        <mxCell id="CKCW097WpN6Poipa3tcR-6" value="" style="edgeStyle=none;shape=connector;rounded=0;orthogonalLoop=1;jettySize=auto;html=1;strokeColor=default;strokeWidth=3;align=center;verticalAlign=bottom;fontFamily=Helvetica;fontSize=11;fontColor=default;labelBackgroundColor=none;startArrow=none;startFill=0;endArrow=none;endFill=0;endSize=8;" edge="1" parent="1" source="71o3AYozCaryOWKUwThR-2" target="CKCW097WpN6Poipa3tcR-1">
          <mxGeometry relative="1" as="geometry" />
        </mxCell>
        <mxCell id="71o3AYozCaryOWKUwThR-2" value="User" style="shape=umlActor;verticalLabelPosition=bottom;verticalAlign=top;html=1;fontFamily=Helvetica;fontSize=11;fontColor=default;labelBackgroundColor=none;" vertex="1" parent="1">
          <mxGeometry x="70" y="340" width="30" height="60" as="geometry" />
        </mxCell>
        <mxCell id="WjBa0j4Qu0j0G6mSQ7nO-1" value="Library Account MS" style="shape=umlActor;verticalLabelPosition=bottom;verticalAlign=top;html=1;outlineConnect=0;fontFamily=Helvetica;fontSize=11;fontColor=default;labelBackgroundColor=none;" vertex="1" parent="1">
          <mxGeometry x="850" y="340" width="30" height="60" as="geometry" />
        </mxCell>
        <mxCell id="CKCW097WpN6Poipa3tcR-7" value="" style="edgeStyle=none;shape=connector;rounded=0;orthogonalLoop=1;jettySize=auto;html=1;strokeColor=default;strokeWidth=3;align=center;verticalAlign=bottom;fontFamily=Helvetica;fontSize=11;fontColor=default;labelBackgroundColor=none;startArrow=none;startFill=0;endArrow=none;endFill=0;endSize=8;" edge="1" parent="1" source="CKCW097WpN6Poipa3tcR-1" target="CKCW097WpN6Poipa3tcR-2">
          <mxGeometry relative="1" as="geometry" />
        </mxCell>
        <mxCell id="CKCW097WpN6Poipa3tcR-1" value="User selects view account option." style="ellipse;whiteSpace=wrap;html=1;fontFamily=Helvetica;fontSize=11;fontColor=default;labelBackgroundColor=none;" vertex="1" parent="1">
          <mxGeometry x="140" y="335" width="140" height="70" as="geometry" />
        </mxCell>
        <mxCell id="CKCW097WpN6Poipa3tcR-2" value="System Navigates to account page" style="ellipse;whiteSpace=wrap;html=1;fontFamily=Helvetica;fontSize=11;fontColor=default;labelBackgroundColor=none;" vertex="1" parent="1">
          <mxGeometry x="310" y="335" width="140" height="70" as="geometry" />
        </mxCell>
        <mxCell id="CKCW097WpN6Poipa3tcR-11" value="" style="edgeStyle=none;shape=connector;rounded=0;orthogonalLoop=1;jettySize=auto;html=1;strokeColor=default;strokeWidth=3;align=center;verticalAlign=bottom;fontFamily=Helvetica;fontSize=11;fontColor=default;labelBackgroundColor=none;startArrow=none;startFill=0;endArrow=none;endFill=0;endSize=8;" edge="1" parent="1" source="CKCW097WpN6Poipa3tcR-3" target="CKCW097WpN6Poipa3tcR-5">
          <mxGeometry relative="1" as="geometry" />
        </mxCell>
        <mxCell id="CKCW097WpN6Poipa3tcR-3" value="System reterives user account data." style="ellipse;whiteSpace=wrap;html=1;fontFamily=Helvetica;fontSize=11;fontColor=default;labelBackgroundColor=none;" vertex="1" parent="1">
          <mxGeometry x="480" y="340" width="140" height="70" as="geometry" />
        </mxCell>
        <mxCell id="CKCW097WpN6Poipa3tcR-4" value="Inform user of Error reteriving account data.&amp;nbsp;" style="ellipse;whiteSpace=wrap;html=1;fontFamily=Helvetica;fontSize=11;fontColor=default;labelBackgroundColor=none;" vertex="1" parent="1">
          <mxGeometry x="470" y="220" width="140" height="70" as="geometry" />
        </mxCell>
        <mxCell id="CKCW097WpN6Poipa3tcR-9" value="" style="edgeStyle=none;shape=connector;rounded=0;orthogonalLoop=1;jettySize=auto;html=1;strokeColor=default;strokeWidth=3;align=center;verticalAlign=bottom;fontFamily=Helvetica;fontSize=11;fontColor=default;labelBackgroundColor=none;startArrow=none;startFill=0;endArrow=none;endFill=0;endSize=8;" edge="1" parent="1" source="CKCW097WpN6Poipa3tcR-5" target="WjBa0j4Qu0j0G6mSQ7nO-1">
          <mxGeometry relative="1" as="geometry" />
        </mxCell>
        <mxCell id="CKCW097WpN6Poipa3tcR-5" value="Display account information on page to user." style="ellipse;whiteSpace=wrap;html=1;fontFamily=Helvetica;fontSize=11;fontColor=default;labelBackgroundColor=none;" vertex="1" parent="1">
          <mxGeometry x="650" y="340" width="140" height="70" as="geometry" />
        </mxCell>
        <mxCell id="CKCW097WpN6Poipa3tcR-8" value="&amp;lt;&amp;lt;extend&amp;gt;&amp;gt;" style="html=1;verticalAlign=bottom;labelBackgroundColor=none;endArrow=open;endFill=0;dashed=1;rounded=0;strokeColor=default;strokeWidth=3;align=center;fontFamily=Helvetica;fontSize=11;fontColor=default;endSize=8;exitX=0.5;exitY=0;exitDx=0;exitDy=0;entryX=0.434;entryY=1.029;entryDx=0;entryDy=0;entryPerimeter=0;" edge="1" parent="1" source="CKCW097WpN6Poipa3tcR-3" target="CKCW097WpN6Poipa3tcR-4">
          <mxGeometry x="-0.1465" y="-30" width="160" relative="1" as="geometry">
            <mxPoint x="270" y="320" as="sourcePoint" />
            <mxPoint x="430" y="320" as="targetPoint" />
            <mxPoint as="offset" />
          </mxGeometry>
        </mxCell>
        <mxCell id="CKCW097WpN6Poipa3tcR-10" value="" style="edgeStyle=none;shape=connector;rounded=0;orthogonalLoop=1;jettySize=auto;html=1;strokeColor=default;strokeWidth=3;align=center;verticalAlign=bottom;fontFamily=Helvetica;fontSize=11;fontColor=default;labelBackgroundColor=none;startArrow=none;startFill=0;endArrow=none;endFill=0;endSize=8;exitX=1;exitY=0.5;exitDx=0;exitDy=0;entryX=0;entryY=0.5;entryDx=0;entryDy=0;" edge="1" parent="1" source="CKCW097WpN6Poipa3tcR-2" target="CKCW097WpN6Poipa3tcR-3">
          <mxGeometry relative="1" as="geometry">
            <mxPoint x="450" y="334" as="sourcePoint" />
            <mxPoint x="490" y="334" as="targetPoint" />
          </mxGeometry>
        </mxCell>
      </root>
    </mxGraphModel>
  </diagram>
  <diagram id="6A3oRJZtTE5p3H9Nf-yX" name="Search Inventory UC">
    <mxGraphModel dx="1290" dy="621" grid="1" gridSize="10" guides="1" tooltips="1" connect="1" arrows="1" fold="1" page="1" pageScale="1" pageWidth="850" pageHeight="1100" math="0" shadow="0">
      <root>
        <mxCell id="0" />
        <mxCell id="1" parent="0" />
        <mxCell id="I6JxBSVqOjX5_OjMnvgj-1" value="" style="rounded=0;whiteSpace=wrap;html=1;fontFamily=Helvetica;fontSize=11;fontColor=default;labelBackgroundColor=none;" vertex="1" parent="1">
          <mxGeometry x="70" y="170" width="660" height="420" as="geometry" />
        </mxCell>
        <mxCell id="TsdEZ8ry7t3-sPQhFBwg-1" value="Search Librarys Catalog&amp;nbsp;" style="shape=note2;boundedLbl=1;whiteSpace=wrap;html=1;size=25;verticalAlign=top;align=center;fontFamily=Helvetica;fontSize=11;fontColor=default;labelBackgroundColor=none;" vertex="1" parent="1">
          <mxGeometry x="110" y="90" width="120" height="70" as="geometry" />
        </mxCell>
        <mxCell id="7wlXL-KGgDrPAcJjV-pF-9" value="" style="edgeStyle=none;shape=connector;rounded=0;orthogonalLoop=1;jettySize=auto;html=1;strokeColor=default;strokeWidth=3;align=center;verticalAlign=bottom;fontFamily=Helvetica;fontSize=11;fontColor=default;labelBackgroundColor=none;startArrow=none;startFill=0;endArrow=none;endFill=0;endSize=8;" edge="1" parent="1" source="7Pikff1O4ko_iOT1hGi8-1" target="7wlXL-KGgDrPAcJjV-pF-1">
          <mxGeometry relative="1" as="geometry" />
        </mxCell>
        <mxCell id="7Pikff1O4ko_iOT1hGi8-1" value="User&amp;nbsp;" style="shape=umlActor;verticalLabelPosition=bottom;verticalAlign=top;html=1;fontFamily=Helvetica;fontSize=11;fontColor=default;labelBackgroundColor=none;" vertex="1" parent="1">
          <mxGeometry x="20" y="360" width="30" height="60" as="geometry" />
        </mxCell>
        <mxCell id="oQjQB1orfzUEAeYkaIaf-1" value="Library Inventory MS" style="shape=umlActor;verticalLabelPosition=bottom;verticalAlign=top;html=1;outlineConnect=0;fontFamily=Helvetica;fontSize=11;fontColor=default;labelBackgroundColor=none;" vertex="1" parent="1">
          <mxGeometry x="770" y="360" width="30" height="60" as="geometry" />
        </mxCell>
        <mxCell id="7wlXL-KGgDrPAcJjV-pF-8" value="" style="edgeStyle=none;shape=connector;rounded=0;orthogonalLoop=1;jettySize=auto;html=1;strokeColor=default;strokeWidth=3;align=center;verticalAlign=bottom;fontFamily=Helvetica;fontSize=11;fontColor=default;labelBackgroundColor=none;startArrow=none;startFill=0;endArrow=none;endFill=0;endSize=8;" edge="1" parent="1" source="7wlXL-KGgDrPAcJjV-pF-1" target="7wlXL-KGgDrPAcJjV-pF-2">
          <mxGeometry relative="1" as="geometry" />
        </mxCell>
        <mxCell id="7wlXL-KGgDrPAcJjV-pF-1" value="User Selects Search Inventory" style="ellipse;whiteSpace=wrap;html=1;fontFamily=Helvetica;fontSize=11;fontColor=default;labelBackgroundColor=none;" vertex="1" parent="1">
          <mxGeometry x="90" y="360" width="140" height="70" as="geometry" />
        </mxCell>
        <mxCell id="7wlXL-KGgDrPAcJjV-pF-10" value="" style="edgeStyle=none;shape=connector;rounded=0;orthogonalLoop=1;jettySize=auto;html=1;strokeColor=default;strokeWidth=3;align=center;verticalAlign=bottom;fontFamily=Helvetica;fontSize=11;fontColor=default;labelBackgroundColor=none;startArrow=none;startFill=0;endArrow=none;endFill=0;endSize=8;" edge="1" parent="1" source="7wlXL-KGgDrPAcJjV-pF-2" target="7wlXL-KGgDrPAcJjV-pF-3">
          <mxGeometry relative="1" as="geometry" />
        </mxCell>
        <mxCell id="7wlXL-KGgDrPAcJjV-pF-2" value="User Enters Search Criteria" style="ellipse;whiteSpace=wrap;html=1;fontFamily=Helvetica;fontSize=11;fontColor=default;labelBackgroundColor=none;" vertex="1" parent="1">
          <mxGeometry x="250" y="360" width="140" height="70" as="geometry" />
        </mxCell>
        <mxCell id="7wlXL-KGgDrPAcJjV-pF-11" value="" style="edgeStyle=none;shape=connector;rounded=0;orthogonalLoop=1;jettySize=auto;html=1;strokeColor=default;strokeWidth=3;align=center;verticalAlign=bottom;fontFamily=Helvetica;fontSize=11;fontColor=default;labelBackgroundColor=none;startArrow=none;startFill=0;endArrow=none;endFill=0;endSize=8;" edge="1" parent="1" source="7wlXL-KGgDrPAcJjV-pF-3" target="7wlXL-KGgDrPAcJjV-pF-6">
          <mxGeometry relative="1" as="geometry" />
        </mxCell>
        <mxCell id="7wlXL-KGgDrPAcJjV-pF-3" value="System Processes Search Query" style="ellipse;whiteSpace=wrap;html=1;fontFamily=Helvetica;fontSize=11;fontColor=default;labelBackgroundColor=none;" vertex="1" parent="1">
          <mxGeometry x="410" y="360" width="140" height="70" as="geometry" />
        </mxCell>
        <mxCell id="7wlXL-KGgDrPAcJjV-pF-4" value="No Search Result is found&amp;nbsp;" style="ellipse;whiteSpace=wrap;html=1;fontFamily=Helvetica;fontSize=11;fontColor=default;labelBackgroundColor=none;" vertex="1" parent="1">
          <mxGeometry x="440" y="480" width="140" height="70" as="geometry" />
        </mxCell>
        <mxCell id="7wlXL-KGgDrPAcJjV-pF-5" value="System Fails to Process Query" style="ellipse;whiteSpace=wrap;html=1;fontFamily=Helvetica;fontSize=11;fontColor=default;labelBackgroundColor=none;" vertex="1" parent="1">
          <mxGeometry x="520" y="230" width="140" height="70" as="geometry" />
        </mxCell>
        <mxCell id="7wlXL-KGgDrPAcJjV-pF-12" value="" style="edgeStyle=none;shape=connector;rounded=0;orthogonalLoop=1;jettySize=auto;html=1;strokeColor=default;strokeWidth=3;align=center;verticalAlign=bottom;fontFamily=Helvetica;fontSize=11;fontColor=default;labelBackgroundColor=none;startArrow=none;startFill=0;endArrow=none;endFill=0;endSize=8;" edge="1" parent="1" source="7wlXL-KGgDrPAcJjV-pF-6" target="oQjQB1orfzUEAeYkaIaf-1">
          <mxGeometry relative="1" as="geometry" />
        </mxCell>
        <mxCell id="7wlXL-KGgDrPAcJjV-pF-6" value="System Displays Results to User" style="ellipse;whiteSpace=wrap;html=1;fontFamily=Helvetica;fontSize=11;fontColor=default;labelBackgroundColor=none;" vertex="1" parent="1">
          <mxGeometry x="570" y="360" width="140" height="70" as="geometry" />
        </mxCell>
        <mxCell id="7wlXL-KGgDrPAcJjV-pF-7" value="&amp;lt;&amp;lt;extend&amp;gt;&amp;gt;" style="html=1;verticalAlign=bottom;labelBackgroundColor=none;endArrow=open;endFill=0;dashed=1;rounded=0;strokeColor=default;strokeWidth=3;align=center;fontFamily=Helvetica;fontSize=11;fontColor=default;endSize=8;exitX=0.554;exitY=-0.057;exitDx=0;exitDy=0;exitPerimeter=0;entryX=0.437;entryY=1.046;entryDx=0;entryDy=0;entryPerimeter=0;" edge="1" parent="1" source="7wlXL-KGgDrPAcJjV-pF-3" target="7wlXL-KGgDrPAcJjV-pF-5">
          <mxGeometry x="-0.6654" y="21" width="160" relative="1" as="geometry">
            <mxPoint x="530" y="330" as="sourcePoint" />
            <mxPoint x="690" y="330" as="targetPoint" />
            <mxPoint as="offset" />
          </mxGeometry>
        </mxCell>
        <mxCell id="7wlXL-KGgDrPAcJjV-pF-14" value="&amp;lt;&amp;lt;extend&amp;gt;&amp;gt;" style="html=1;verticalAlign=bottom;labelBackgroundColor=none;endArrow=open;endFill=0;dashed=1;rounded=0;strokeColor=default;strokeWidth=3;align=center;fontFamily=Helvetica;fontSize=11;fontColor=default;endSize=8;exitX=0.566;exitY=1.051;exitDx=0;exitDy=0;exitPerimeter=0;entryX=0.597;entryY=-0.034;entryDx=0;entryDy=0;entryPerimeter=0;" edge="1" parent="1" source="7wlXL-KGgDrPAcJjV-pF-3" target="7wlXL-KGgDrPAcJjV-pF-4">
          <mxGeometry x="0.1412" y="14" width="160" relative="1" as="geometry">
            <mxPoint x="520" y="463" as="sourcePoint" />
            <mxPoint x="613" y="410" as="targetPoint" />
            <mxPoint as="offset" />
          </mxGeometry>
        </mxCell>
      </root>
    </mxGraphModel>
  </diagram>
  <diagram id="Hy8-XLe57JfF2Yk2x1LK" name="Place Hold On Media UC ">
    <mxGraphModel dx="1290" dy="621" grid="1" gridSize="10" guides="1" tooltips="1" connect="1" arrows="1" fold="1" page="1" pageScale="1" pageWidth="850" pageHeight="1100" math="0" shadow="0">
      <root>
        <mxCell id="0" />
        <mxCell id="1" parent="0" />
        <mxCell id="9Ek8xBjZEYI8tRbzbroN-1" value="" style="rounded=0;whiteSpace=wrap;html=1;fontFamily=Helvetica;fontSize=11;fontColor=default;labelBackgroundColor=none;" vertex="1" parent="1">
          <mxGeometry x="120" y="190" width="840" height="420" as="geometry" />
        </mxCell>
        <mxCell id="9Ek8xBjZEYI8tRbzbroN-2" value="Library Inventory MS" style="shape=umlActor;verticalLabelPosition=bottom;verticalAlign=top;html=1;outlineConnect=0;fontFamily=Helvetica;fontSize=11;fontColor=default;labelBackgroundColor=none;" vertex="1" parent="1">
          <mxGeometry x="1020" y="250" width="30" height="60" as="geometry" />
        </mxCell>
        <mxCell id="9Ek8xBjZEYI8tRbzbroN-3" value="Library Notificiation System" style="shape=umlActor;verticalLabelPosition=bottom;verticalAlign=top;html=1;outlineConnect=0;fontFamily=Helvetica;fontSize=11;fontColor=default;labelBackgroundColor=none;" vertex="1" parent="1">
          <mxGeometry x="1020" y="400" width="30" height="60" as="geometry" />
        </mxCell>
        <mxCell id="9Ek8xBjZEYI8tRbzbroN-4" value="User Selects Item to Hold" style="ellipse;whiteSpace=wrap;html=1;fontFamily=Helvetica;fontSize=11;fontColor=default;labelBackgroundColor=none;" vertex="1" parent="1">
          <mxGeometry x="130" y="330" width="140" height="70" as="geometry" />
        </mxCell>
        <mxCell id="9Ek8xBjZEYI8tRbzbroN-5" value="System Adds User to Items Waitlist" style="ellipse;whiteSpace=wrap;html=1;fontFamily=Helvetica;fontSize=11;fontColor=default;labelBackgroundColor=none;" vertex="1" parent="1">
          <mxGeometry x="470" y="325" width="140" height="70" as="geometry" />
        </mxCell>
        <mxCell id="9Ek8xBjZEYI8tRbzbroN-6" value="System informs user item is not available to hold." style="ellipse;whiteSpace=wrap;html=1;fontFamily=Helvetica;fontSize=11;fontColor=default;labelBackgroundColor=none;" vertex="1" parent="1">
          <mxGeometry x="285" y="210" width="140" height="70" as="geometry" />
        </mxCell>
        <mxCell id="9Ek8xBjZEYI8tRbzbroN-7" value="" style="endArrow=none;html=1;rounded=0;strokeColor=default;strokeWidth=3;align=center;verticalAlign=bottom;fontFamily=Helvetica;fontSize=11;fontColor=default;labelBackgroundColor=none;endSize=8;entryX=0;entryY=0.5;entryDx=0;entryDy=0;" edge="1" parent="1" target="9Ek8xBjZEYI8tRbzbroN-4">
          <mxGeometry width="50" height="50" relative="1" as="geometry">
            <mxPoint x="80" y="361" as="sourcePoint" />
            <mxPoint x="150" y="335" as="targetPoint" />
          </mxGeometry>
        </mxCell>
        <mxCell id="9Ek8xBjZEYI8tRbzbroN-8" value="" style="endArrow=none;html=1;rounded=0;strokeColor=default;strokeWidth=3;align=center;verticalAlign=bottom;fontFamily=Helvetica;fontSize=11;fontColor=default;labelBackgroundColor=none;endSize=8;entryX=0;entryY=0.5;entryDx=0;entryDy=0;exitX=1;exitY=0.5;exitDx=0;exitDy=0;" edge="1" parent="1" source="9Ek8xBjZEYI8tRbzbroN-4" target="9Ek8xBjZEYI8tRbzbroN-12">
          <mxGeometry width="50" height="50" relative="1" as="geometry">
            <mxPoint x="270" y="400" as="sourcePoint" />
            <mxPoint x="320" y="419" as="targetPoint" />
          </mxGeometry>
        </mxCell>
        <mxCell id="9Ek8xBjZEYI8tRbzbroN-9" value="&amp;lt;&amp;lt;include&amp;gt;&amp;gt;" style="html=1;verticalAlign=bottom;labelBackgroundColor=none;endArrow=open;endFill=0;dashed=1;rounded=0;strokeColor=default;strokeWidth=3;align=center;fontFamily=Helvetica;fontSize=11;fontColor=default;endSize=8;exitX=0.5;exitY=0;exitDx=0;exitDy=0;entryX=0.5;entryY=1;entryDx=0;entryDy=0;" edge="1" parent="1" source="9Ek8xBjZEYI8tRbzbroN-12" target="9Ek8xBjZEYI8tRbzbroN-6">
          <mxGeometry x="-0.0891" y="28" width="160" relative="1" as="geometry">
            <mxPoint x="370" y="300" as="sourcePoint" />
            <mxPoint x="530" y="300" as="targetPoint" />
            <mxPoint as="offset" />
          </mxGeometry>
        </mxCell>
        <mxCell id="9Ek8xBjZEYI8tRbzbroN-10" value="&amp;lt;&amp;lt;include&amp;gt;&amp;gt;" style="html=1;verticalAlign=bottom;labelBackgroundColor=none;endArrow=open;endFill=0;dashed=1;rounded=0;strokeColor=default;strokeWidth=3;align=center;fontFamily=Helvetica;fontSize=11;fontColor=default;endSize=8;exitX=0.32;exitY=1.017;exitDx=0;exitDy=0;exitPerimeter=0;" edge="1" parent="1" source="9Ek8xBjZEYI8tRbzbroN-5">
          <mxGeometry x="-0.0891" y="28" width="160" relative="1" as="geometry">
            <mxPoint x="465" y="470" as="sourcePoint" />
            <mxPoint x="495" y="460" as="targetPoint" />
            <mxPoint as="offset" />
          </mxGeometry>
        </mxCell>
        <mxCell id="9Ek8xBjZEYI8tRbzbroN-11" value="System informs user&amp;nbsp; Waitlisting&amp;nbsp; Process Fails." style="ellipse;whiteSpace=wrap;html=1;fontFamily=Helvetica;fontSize=11;fontColor=default;labelBackgroundColor=none;" vertex="1" parent="1">
          <mxGeometry x="420" y="460" width="140" height="70" as="geometry" />
        </mxCell>
        <mxCell id="9Ek8xBjZEYI8tRbzbroN-12" value="System Checks for Item Holding Availibility" style="ellipse;whiteSpace=wrap;html=1;fontFamily=Helvetica;fontSize=11;fontColor=default;labelBackgroundColor=none;" vertex="1" parent="1">
          <mxGeometry x="290" y="330" width="140" height="70" as="geometry" />
        </mxCell>
        <mxCell id="9Ek8xBjZEYI8tRbzbroN-13" value="" style="endArrow=none;html=1;rounded=0;strokeColor=default;strokeWidth=3;align=center;verticalAlign=bottom;fontFamily=Helvetica;fontSize=11;fontColor=default;labelBackgroundColor=none;endSize=8;entryX=0;entryY=0.5;entryDx=0;entryDy=0;exitX=1.014;exitY=0.406;exitDx=0;exitDy=0;exitPerimeter=0;" edge="1" parent="1" source="9Ek8xBjZEYI8tRbzbroN-12" target="9Ek8xBjZEYI8tRbzbroN-5">
          <mxGeometry width="50" height="50" relative="1" as="geometry">
            <mxPoint x="450" y="330" as="sourcePoint" />
            <mxPoint x="480" y="330" as="targetPoint" />
          </mxGeometry>
        </mxCell>
        <mxCell id="9Ek8xBjZEYI8tRbzbroN-14" value="" style="edgeStyle=none;shape=connector;rounded=0;orthogonalLoop=1;jettySize=auto;html=1;strokeColor=default;strokeWidth=3;align=center;verticalAlign=bottom;fontFamily=Helvetica;fontSize=11;fontColor=default;labelBackgroundColor=none;startArrow=none;startFill=0;endArrow=none;endFill=0;endSize=8;" edge="1" parent="1" source="9Ek8xBjZEYI8tRbzbroN-15" target="9Ek8xBjZEYI8tRbzbroN-5">
          <mxGeometry relative="1" as="geometry" />
        </mxCell>
        <mxCell id="9Ek8xBjZEYI8tRbzbroN-15" value="System Updates User Account with item hold." style="ellipse;whiteSpace=wrap;html=1;fontFamily=Helvetica;fontSize=11;fontColor=default;labelBackgroundColor=none;" vertex="1" parent="1">
          <mxGeometry x="620" y="330" width="140" height="70" as="geometry" />
        </mxCell>
        <mxCell id="9Ek8xBjZEYI8tRbzbroN-16" value="User is Informed of Sucsesssful Hold and Notification Email is Scheduled&amp;nbsp;" style="ellipse;whiteSpace=wrap;html=1;fontFamily=Helvetica;fontSize=11;fontColor=default;labelBackgroundColor=none;" vertex="1" parent="1">
          <mxGeometry x="790" y="325" width="140" height="70" as="geometry" />
        </mxCell>
        <mxCell id="9Ek8xBjZEYI8tRbzbroN-17" value="" style="endArrow=none;html=1;rounded=0;strokeColor=default;strokeWidth=3;align=center;verticalAlign=bottom;fontFamily=Helvetica;fontSize=11;fontColor=default;labelBackgroundColor=none;endSize=8;exitX=1.014;exitY=0.406;exitDx=0;exitDy=0;exitPerimeter=0;" edge="1" parent="1">
          <mxGeometry width="50" height="50" relative="1" as="geometry">
            <mxPoint x="760" y="364" as="sourcePoint" />
            <mxPoint x="790" y="360" as="targetPoint" />
          </mxGeometry>
        </mxCell>
        <mxCell id="9Ek8xBjZEYI8tRbzbroN-18" value="" style="endArrow=none;html=1;rounded=0;strokeColor=default;strokeWidth=3;align=center;verticalAlign=bottom;fontFamily=Helvetica;fontSize=11;fontColor=default;labelBackgroundColor=none;endSize=8;exitX=0.977;exitY=0.386;exitDx=0;exitDy=0;exitPerimeter=0;" edge="1" parent="1" source="9Ek8xBjZEYI8tRbzbroN-16" target="9Ek8xBjZEYI8tRbzbroN-2">
          <mxGeometry width="50" height="50" relative="1" as="geometry">
            <mxPoint x="942" y="350" as="sourcePoint" />
            <mxPoint x="980" y="352" as="targetPoint" />
          </mxGeometry>
        </mxCell>
        <mxCell id="9Ek8xBjZEYI8tRbzbroN-19" value="" style="endArrow=none;html=1;rounded=0;strokeColor=default;strokeWidth=3;align=center;verticalAlign=bottom;fontFamily=Helvetica;fontSize=11;fontColor=default;labelBackgroundColor=none;endSize=8;exitX=0.989;exitY=0.774;exitDx=0;exitDy=0;exitPerimeter=0;" edge="1" parent="1" source="9Ek8xBjZEYI8tRbzbroN-16" target="9Ek8xBjZEYI8tRbzbroN-3">
          <mxGeometry width="50" height="50" relative="1" as="geometry">
            <mxPoint x="937" y="362" as="sourcePoint" />
            <mxPoint x="1000" y="320" as="targetPoint" />
          </mxGeometry>
        </mxCell>
        <mxCell id="9Ek8xBjZEYI8tRbzbroN-20" value="Put Media On Hold" style="shape=note2;boundedLbl=1;whiteSpace=wrap;html=1;size=25;verticalAlign=top;align=center;fontFamily=Helvetica;fontSize=11;fontColor=default;labelBackgroundColor=none;" vertex="1" parent="1">
          <mxGeometry x="150" y="120" width="120" height="60" as="geometry" />
        </mxCell>
        <mxCell id="9Ek8xBjZEYI8tRbzbroN-21" value="User&amp;nbsp;" style="shape=umlActor;verticalLabelPosition=bottom;verticalAlign=top;html=1;outlineConnect=0;fontFamily=Helvetica;fontSize=11;fontColor=default;labelBackgroundColor=none;" vertex="1" parent="1">
          <mxGeometry x="30" y="335" width="30" height="60" as="geometry" />
        </mxCell>
      </root>
    </mxGraphModel>
  </diagram>
  <diagram id="HOlYBDW3TuBcuOSL9ofz" name="View Member Information UC">
    <mxGraphModel dx="1290" dy="621" grid="1" gridSize="10" guides="1" tooltips="1" connect="1" arrows="1" fold="1" page="1" pageScale="1" pageWidth="850" pageHeight="1100" math="0" shadow="0">
      <root>
        <mxCell id="0" />
        <mxCell id="1" parent="0" />
        <mxCell id="d15tt8zYfZU881cN0r59-9" value="Object" style="html=1;whiteSpace=wrap;fontFamily=Helvetica;fontSize=11;fontColor=default;labelBackgroundColor=none;" vertex="1" parent="1">
          <mxGeometry x="130" y="240" width="380" height="280" as="geometry" />
        </mxCell>
        <mxCell id="q0ein22Wva-W-Mra6jjI-1" value="View Library Member&#39;s Information" style="shape=note2;boundedLbl=1;whiteSpace=wrap;html=1;size=25;verticalAlign=top;align=center;fontFamily=Helvetica;fontSize=11;fontColor=default;labelBackgroundColor=none;" vertex="1" parent="1">
          <mxGeometry x="120" y="130" width="120" height="60" as="geometry" />
        </mxCell>
        <mxCell id="d15tt8zYfZU881cN0r59-3" value="" style="edgeStyle=none;shape=connector;rounded=0;orthogonalLoop=1;jettySize=auto;html=1;strokeColor=default;strokeWidth=3;align=center;verticalAlign=bottom;fontFamily=Helvetica;fontSize=11;fontColor=default;labelBackgroundColor=none;startArrow=none;startFill=0;endArrow=none;endFill=0;endSize=8;" edge="1" parent="1" source="q0ein22Wva-W-Mra6jjI-2" target="d15tt8zYfZU881cN0r59-1">
          <mxGeometry relative="1" as="geometry" />
        </mxCell>
        <mxCell id="q0ein22Wva-W-Mra6jjI-2" value="Library Staff" style="shape=umlActor;verticalLabelPosition=bottom;verticalAlign=top;html=1;outlineConnect=0;fontFamily=Helvetica;fontSize=11;fontColor=default;labelBackgroundColor=none;" vertex="1" parent="1">
          <mxGeometry x="60" y="375" width="30" height="60" as="geometry" />
        </mxCell>
        <mxCell id="ElBn7rqC7AwwMYGuBZIN-1" value="Library Account MS" style="shape=umlActor;verticalLabelPosition=bottom;verticalAlign=top;html=1;outlineConnect=0;fontFamily=Helvetica;fontSize=11;fontColor=default;labelBackgroundColor=none;" vertex="1" parent="1">
          <mxGeometry x="570" y="375" width="30" height="60" as="geometry" />
        </mxCell>
        <mxCell id="d15tt8zYfZU881cN0r59-4" value="" style="edgeStyle=none;shape=connector;rounded=0;orthogonalLoop=1;jettySize=auto;html=1;strokeColor=default;strokeWidth=3;align=center;verticalAlign=bottom;fontFamily=Helvetica;fontSize=11;fontColor=default;labelBackgroundColor=none;startArrow=none;startFill=0;endArrow=none;endFill=0;endSize=8;" edge="1" parent="1" source="d15tt8zYfZU881cN0r59-1" target="d15tt8zYfZU881cN0r59-2">
          <mxGeometry relative="1" as="geometry" />
        </mxCell>
        <mxCell id="d15tt8zYfZU881cN0r59-1" value="Staff selects Member account to view." style="ellipse;whiteSpace=wrap;html=1;fontFamily=Helvetica;fontSize=11;fontColor=default;labelBackgroundColor=none;" vertex="1" parent="1">
          <mxGeometry x="150" y="370" width="140" height="70" as="geometry" />
        </mxCell>
        <mxCell id="d15tt8zYfZU881cN0r59-8" value="" style="edgeStyle=none;shape=connector;rounded=0;orthogonalLoop=1;jettySize=auto;html=1;strokeColor=default;strokeWidth=3;align=center;verticalAlign=bottom;fontFamily=Helvetica;fontSize=11;fontColor=default;labelBackgroundColor=none;startArrow=none;startFill=0;endArrow=none;endFill=0;endSize=8;" edge="1" parent="1" source="d15tt8zYfZU881cN0r59-2" target="ElBn7rqC7AwwMYGuBZIN-1">
          <mxGeometry relative="1" as="geometry" />
        </mxCell>
        <mxCell id="d15tt8zYfZU881cN0r59-2" value="System Displays Member Information to Staff.&amp;nbsp;" style="ellipse;whiteSpace=wrap;html=1;fontFamily=Helvetica;fontSize=11;fontColor=default;labelBackgroundColor=none;" vertex="1" parent="1">
          <mxGeometry x="330" y="370" width="140" height="70" as="geometry" />
        </mxCell>
        <mxCell id="d15tt8zYfZU881cN0r59-5" style="edgeStyle=none;shape=connector;rounded=0;orthogonalLoop=1;jettySize=auto;html=1;exitX=0.5;exitY=0.5;exitDx=0;exitDy=0;exitPerimeter=0;strokeColor=default;strokeWidth=3;align=center;verticalAlign=bottom;fontFamily=Helvetica;fontSize=11;fontColor=default;labelBackgroundColor=none;startArrow=none;startFill=0;endArrow=none;endFill=0;endSize=8;" edge="1" parent="1" source="q0ein22Wva-W-Mra6jjI-2" target="q0ein22Wva-W-Mra6jjI-2">
          <mxGeometry relative="1" as="geometry" />
        </mxCell>
        <mxCell id="d15tt8zYfZU881cN0r59-6" value="System Fails to User Account Search process.&amp;nbsp;" style="ellipse;whiteSpace=wrap;html=1;fontFamily=Helvetica;fontSize=11;fontColor=default;labelBackgroundColor=none;" vertex="1" parent="1">
          <mxGeometry x="340" y="260" width="140" height="70" as="geometry" />
        </mxCell>
        <mxCell id="d15tt8zYfZU881cN0r59-7" value="&amp;lt;&amp;lt;extend&amp;gt;&amp;gt;" style="html=1;verticalAlign=bottom;labelBackgroundColor=none;endArrow=open;endFill=0;dashed=1;rounded=0;strokeColor=default;strokeWidth=3;align=center;fontFamily=Helvetica;fontSize=11;fontColor=default;endSize=8;exitX=0.566;exitY=0.006;exitDx=0;exitDy=0;exitPerimeter=0;entryX=0.454;entryY=0.983;entryDx=0;entryDy=0;entryPerimeter=0;" edge="1" parent="1" source="d15tt8zYfZU881cN0r59-2" target="d15tt8zYfZU881cN0r59-6">
          <mxGeometry x="-0.7918" y="29" width="160" relative="1" as="geometry">
            <mxPoint x="490" y="350" as="sourcePoint" />
            <mxPoint x="650" y="350" as="targetPoint" />
            <mxPoint as="offset" />
          </mxGeometry>
        </mxCell>
      </root>
    </mxGraphModel>
  </diagram>
  <diagram id="GUn9aunUkH7Y2f90Y0aJ" name="View Media and Reservation History UC ">
    <mxGraphModel dx="1290" dy="621" grid="1" gridSize="10" guides="1" tooltips="1" connect="1" arrows="1" fold="1" page="1" pageScale="1" pageWidth="850" pageHeight="1100" math="0" shadow="0">
      <root>
        <mxCell id="0" />
        <mxCell id="1" parent="0" />
        <mxCell id="XZaqRThCpuMmCtW5zLKd-11" value="Object" style="html=1;whiteSpace=wrap;fontFamily=Helvetica;fontSize=11;fontColor=default;labelBackgroundColor=none;" vertex="1" parent="1">
          <mxGeometry x="100" y="320" width="340" height="350" as="geometry" />
        </mxCell>
        <mxCell id="cL_Tla09HqRFDhRp855g-1" value="View Media Checkout and Reservation History&amp;nbsp;" style="shape=note2;boundedLbl=1;whiteSpace=wrap;html=1;size=25;verticalAlign=top;align=center;fontFamily=Helvetica;fontSize=11;fontColor=default;labelBackgroundColor=none;" vertex="1" parent="1">
          <mxGeometry x="100" y="220" width="120" height="80" as="geometry" />
        </mxCell>
        <mxCell id="XZaqRThCpuMmCtW5zLKd-7" value="" style="edgeStyle=none;shape=connector;rounded=0;orthogonalLoop=1;jettySize=auto;html=1;strokeColor=default;strokeWidth=3;align=center;verticalAlign=bottom;fontFamily=Helvetica;fontSize=11;fontColor=default;labelBackgroundColor=none;startArrow=none;startFill=0;endArrow=none;endFill=0;endSize=8;" edge="1" parent="1" source="cL_Tla09HqRFDhRp855g-2" target="XZaqRThCpuMmCtW5zLKd-1">
          <mxGeometry relative="1" as="geometry" />
        </mxCell>
        <mxCell id="cL_Tla09HqRFDhRp855g-2" value="Library Staff&amp;nbsp;" style="shape=umlActor;verticalLabelPosition=bottom;verticalAlign=top;html=1;fontFamily=Helvetica;fontSize=11;fontColor=default;labelBackgroundColor=none;" vertex="1" parent="1">
          <mxGeometry x="40" y="450" width="30" height="60" as="geometry" />
        </mxCell>
        <mxCell id="ZQoCAUiQVVW8apEC08SW-1" value="Library Inventory MS" style="shape=umlActor;verticalLabelPosition=bottom;verticalAlign=top;html=1;outlineConnect=0;fontFamily=Helvetica;fontSize=11;fontColor=default;labelBackgroundColor=none;" vertex="1" parent="1">
          <mxGeometry x="530" y="440" width="30" height="60" as="geometry" />
        </mxCell>
        <mxCell id="XZaqRThCpuMmCtW5zLKd-8" value="" style="edgeStyle=none;shape=connector;rounded=0;orthogonalLoop=1;jettySize=auto;html=1;strokeColor=default;strokeWidth=3;align=center;verticalAlign=bottom;fontFamily=Helvetica;fontSize=11;fontColor=default;labelBackgroundColor=none;startArrow=none;startFill=0;endArrow=none;endFill=0;endSize=8;" edge="1" parent="1" source="XZaqRThCpuMmCtW5zLKd-1" target="XZaqRThCpuMmCtW5zLKd-2">
          <mxGeometry relative="1" as="geometry" />
        </mxCell>
        <mxCell id="XZaqRThCpuMmCtW5zLKd-1" value="Staff Searches User Reservation History&amp;nbsp;" style="ellipse;whiteSpace=wrap;html=1;fontFamily=Helvetica;fontSize=11;fontColor=default;labelBackgroundColor=none;" vertex="1" parent="1">
          <mxGeometry x="110" y="450" width="140" height="70" as="geometry" />
        </mxCell>
        <mxCell id="XZaqRThCpuMmCtW5zLKd-2" value="Members Reservations is displayed on screen.&amp;nbsp;" style="ellipse;whiteSpace=wrap;html=1;fontFamily=Helvetica;fontSize=11;fontColor=default;labelBackgroundColor=none;" vertex="1" parent="1">
          <mxGeometry x="280" y="450" width="140" height="70" as="geometry" />
        </mxCell>
        <mxCell id="XZaqRThCpuMmCtW5zLKd-3" value="Media Reservations Displayed on Screen" style="ellipse;whiteSpace=wrap;html=1;fontFamily=Helvetica;fontSize=11;fontColor=default;labelBackgroundColor=none;" vertex="1" parent="1">
          <mxGeometry x="285" y="330" width="140" height="70" as="geometry" />
        </mxCell>
        <mxCell id="XZaqRThCpuMmCtW5zLKd-4" value="&amp;lt;&amp;lt;include&amp;gt;&amp;gt;" style="html=1;verticalAlign=bottom;labelBackgroundColor=none;endArrow=open;endFill=0;dashed=1;rounded=0;strokeColor=default;strokeWidth=3;align=center;fontFamily=Helvetica;fontSize=11;fontColor=default;endSize=8;exitX=0.551;exitY=-0.029;exitDx=0;exitDy=0;exitPerimeter=0;entryX=0.5;entryY=1;entryDx=0;entryDy=0;" edge="1" parent="1" source="XZaqRThCpuMmCtW5zLKd-2" target="XZaqRThCpuMmCtW5zLKd-3">
          <mxGeometry x="-0.5994" y="37" width="160" relative="1" as="geometry">
            <mxPoint x="460" y="430" as="sourcePoint" />
            <mxPoint x="620" y="430" as="targetPoint" />
            <mxPoint as="offset" />
          </mxGeometry>
        </mxCell>
        <mxCell id="XZaqRThCpuMmCtW5zLKd-5" value="Meeting Room Reservations Displayed." style="ellipse;whiteSpace=wrap;html=1;fontFamily=Helvetica;fontSize=11;fontColor=default;labelBackgroundColor=none;" vertex="1" parent="1">
          <mxGeometry x="280" y="570" width="140" height="70" as="geometry" />
        </mxCell>
        <mxCell id="XZaqRThCpuMmCtW5zLKd-6" value="&amp;lt;&amp;lt;include&amp;gt;&amp;gt;" style="html=1;verticalAlign=bottom;labelBackgroundColor=none;endArrow=open;endFill=0;dashed=1;rounded=0;strokeColor=default;strokeWidth=3;align=center;fontFamily=Helvetica;fontSize=11;fontColor=default;endSize=8;exitX=0.454;exitY=1.069;exitDx=0;exitDy=0;exitPerimeter=0;entryX=0.5;entryY=0;entryDx=0;entryDy=0;" edge="1" parent="1" source="XZaqRThCpuMmCtW5zLKd-2" target="XZaqRThCpuMmCtW5zLKd-5">
          <mxGeometry x="0.3177" y="33" width="160" relative="1" as="geometry">
            <mxPoint x="422" y="588" as="sourcePoint" />
            <mxPoint x="420" y="540" as="targetPoint" />
            <mxPoint as="offset" />
          </mxGeometry>
        </mxCell>
        <mxCell id="XZaqRThCpuMmCtW5zLKd-10" value="" style="edgeStyle=none;shape=connector;rounded=0;orthogonalLoop=1;jettySize=auto;html=1;strokeColor=default;strokeWidth=3;align=center;verticalAlign=bottom;fontFamily=Helvetica;fontSize=11;fontColor=default;labelBackgroundColor=none;startArrow=none;startFill=0;endArrow=none;endFill=0;endSize=8;" edge="1" parent="1">
          <mxGeometry relative="1" as="geometry">
            <mxPoint x="420" y="479.5" as="sourcePoint" />
            <mxPoint x="530" y="480" as="targetPoint" />
          </mxGeometry>
        </mxCell>
      </root>
    </mxGraphModel>
  </diagram>
  <diagram id="iP36zxI6o1P4QlkV7Fzb" name="Meeting Rooms UC">
    <mxGraphModel dx="1290" dy="621" grid="1" gridSize="10" guides="1" tooltips="1" connect="1" arrows="1" fold="1" page="1" pageScale="1" pageWidth="850" pageHeight="1100" math="0" shadow="0">
      <root>
        <mxCell id="0" />
        <mxCell id="1" parent="0" />
        <mxCell id="xo3lkwgqWXO0TBrHMxAI-12" value="" style="rounded=0;whiteSpace=wrap;html=1;fontFamily=Helvetica;fontSize=11;fontColor=default;labelBackgroundColor=none;" vertex="1" parent="1">
          <mxGeometry x="110" y="130" width="750" height="310" as="geometry" />
        </mxCell>
        <mxCell id="xo3lkwgqWXO0TBrHMxAI-4" value="" style="edgeStyle=none;shape=connector;rounded=0;orthogonalLoop=1;jettySize=auto;html=1;strokeColor=default;strokeWidth=3;align=center;verticalAlign=bottom;fontFamily=Helvetica;fontSize=11;fontColor=default;labelBackgroundColor=none;startArrow=none;startFill=0;endArrow=none;endFill=0;endSize=8;" edge="1" parent="1" source="TnlW5KPmh3gedWHRsKF6-1" target="okGRqIcc0WK1CJogYlXc-2">
          <mxGeometry relative="1" as="geometry" />
        </mxCell>
        <mxCell id="TnlW5KPmh3gedWHRsKF6-1" value="Library Staff" style="shape=umlActor;verticalLabelPosition=bottom;verticalAlign=top;html=1;fontFamily=Helvetica;fontSize=11;fontColor=default;labelBackgroundColor=none;" vertex="1" parent="1">
          <mxGeometry x="40" y="295" width="30" height="60" as="geometry" />
        </mxCell>
        <mxCell id="snuDYCiBtGxtEAJd_Hnk-1" value="Library Account MS" style="shape=umlActor;verticalLabelPosition=bottom;verticalAlign=top;html=1;outlineConnect=0;fontFamily=Helvetica;fontSize=11;fontColor=default;labelBackgroundColor=none;" vertex="1" parent="1">
          <mxGeometry x="950" y="210" width="30" height="60" as="geometry" />
        </mxCell>
        <mxCell id="okGRqIcc0WK1CJogYlXc-1" value="Library Notificiation System" style="shape=umlActor;verticalLabelPosition=bottom;verticalAlign=top;html=1;outlineConnect=0;fontFamily=Helvetica;fontSize=11;fontColor=default;labelBackgroundColor=none;" vertex="1" parent="1">
          <mxGeometry x="940" y="340" width="30" height="60" as="geometry" />
        </mxCell>
        <mxCell id="xo3lkwgqWXO0TBrHMxAI-5" value="" style="edgeStyle=none;shape=connector;rounded=0;orthogonalLoop=1;jettySize=auto;html=1;strokeColor=default;strokeWidth=3;align=center;verticalAlign=bottom;fontFamily=Helvetica;fontSize=11;fontColor=default;labelBackgroundColor=none;startArrow=none;startFill=0;endArrow=none;endFill=0;endSize=8;" edge="1" parent="1" source="okGRqIcc0WK1CJogYlXc-2" target="xo3lkwgqWXO0TBrHMxAI-1">
          <mxGeometry relative="1" as="geometry" />
        </mxCell>
        <mxCell id="okGRqIcc0WK1CJogYlXc-2" value="Staff Views Meeting Room Reservation Page" style="ellipse;whiteSpace=wrap;html=1;fontFamily=Helvetica;fontSize=11;fontColor=default;labelBackgroundColor=none;" vertex="1" parent="1">
          <mxGeometry x="130" y="290" width="140" height="70" as="geometry" />
        </mxCell>
        <mxCell id="xo3lkwgqWXO0TBrHMxAI-6" value="" style="edgeStyle=none;shape=connector;rounded=0;orthogonalLoop=1;jettySize=auto;html=1;strokeColor=default;strokeWidth=3;align=center;verticalAlign=bottom;fontFamily=Helvetica;fontSize=11;fontColor=default;labelBackgroundColor=none;startArrow=none;startFill=0;endArrow=none;endFill=0;endSize=8;" edge="1" parent="1" source="xo3lkwgqWXO0TBrHMxAI-1" target="xo3lkwgqWXO0TBrHMxAI-2">
          <mxGeometry relative="1" as="geometry" />
        </mxCell>
        <mxCell id="xo3lkwgqWXO0TBrHMxAI-1" value="Reserved and Available Meeting Rooms Displayed To Staff" style="ellipse;whiteSpace=wrap;html=1;fontFamily=Helvetica;fontSize=11;fontColor=default;labelBackgroundColor=none;" vertex="1" parent="1">
          <mxGeometry x="310" y="295" width="140" height="70" as="geometry" />
        </mxCell>
        <mxCell id="xo3lkwgqWXO0TBrHMxAI-9" value="" style="edgeStyle=none;shape=connector;rounded=0;orthogonalLoop=1;jettySize=auto;html=1;strokeColor=default;strokeWidth=3;align=center;verticalAlign=bottom;fontFamily=Helvetica;fontSize=11;fontColor=default;labelBackgroundColor=none;startArrow=none;startFill=0;endArrow=none;endFill=0;endSize=8;" edge="1" parent="1" source="xo3lkwgqWXO0TBrHMxAI-2" target="xo3lkwgqWXO0TBrHMxAI-8">
          <mxGeometry relative="1" as="geometry" />
        </mxCell>
        <mxCell id="xo3lkwgqWXO0TBrHMxAI-2" value="Staff Approves or Denies Request to Reserve Room&amp;nbsp;" style="ellipse;whiteSpace=wrap;html=1;fontFamily=Helvetica;fontSize=11;fontColor=default;labelBackgroundColor=none;" vertex="1" parent="1">
          <mxGeometry x="480" y="295" width="140" height="70" as="geometry" />
        </mxCell>
        <mxCell id="xo3lkwgqWXO0TBrHMxAI-3" value="&amp;lt;&amp;lt;extend&amp;gt;&amp;gt;" style="html=1;verticalAlign=bottom;labelBackgroundColor=none;endArrow=open;endFill=0;dashed=1;rounded=0;strokeColor=default;strokeWidth=3;align=center;fontFamily=Helvetica;fontSize=11;fontColor=default;endSize=8;exitX=0.5;exitY=0;exitDx=0;exitDy=0;" edge="1" parent="1" source="xo3lkwgqWXO0TBrHMxAI-2">
          <mxGeometry x="-0.3333" y="30" width="160" relative="1" as="geometry">
            <mxPoint x="480" y="210" as="sourcePoint" />
            <mxPoint x="550" y="220" as="targetPoint" />
            <mxPoint as="offset" />
          </mxGeometry>
        </mxCell>
        <mxCell id="xo3lkwgqWXO0TBrHMxAI-7" value="There is an Availibility Conflict Error displayed to Staff" style="ellipse;whiteSpace=wrap;html=1;fontFamily=Helvetica;fontSize=11;fontColor=default;labelBackgroundColor=none;" vertex="1" parent="1">
          <mxGeometry x="480" y="150" width="140" height="70" as="geometry" />
        </mxCell>
        <mxCell id="xo3lkwgqWXO0TBrHMxAI-8" value="The reservation list is updated with the most recent changes and a notification is sent to the user." style="ellipse;whiteSpace=wrap;html=1;fontFamily=Helvetica;fontSize=11;fontColor=default;labelBackgroundColor=none;" vertex="1" parent="1">
          <mxGeometry x="670" y="295" width="150" height="85" as="geometry" />
        </mxCell>
        <mxCell id="xo3lkwgqWXO0TBrHMxAI-10" value="" style="edgeStyle=none;shape=connector;rounded=0;orthogonalLoop=1;jettySize=auto;html=1;strokeColor=default;strokeWidth=3;align=center;verticalAlign=bottom;fontFamily=Helvetica;fontSize=11;fontColor=default;labelBackgroundColor=none;startArrow=none;startFill=0;endArrow=none;endFill=0;endSize=8;exitX=0.5;exitY=0;exitDx=0;exitDy=0;" edge="1" parent="1" source="xo3lkwgqWXO0TBrHMxAI-8" target="snuDYCiBtGxtEAJd_Hnk-1">
          <mxGeometry relative="1" as="geometry">
            <mxPoint x="730" y="250" as="sourcePoint" />
            <mxPoint x="780" y="250" as="targetPoint" />
          </mxGeometry>
        </mxCell>
        <mxCell id="xo3lkwgqWXO0TBrHMxAI-11" value="" style="edgeStyle=none;shape=connector;rounded=0;orthogonalLoop=1;jettySize=auto;html=1;strokeColor=default;strokeWidth=3;align=center;verticalAlign=bottom;fontFamily=Helvetica;fontSize=11;fontColor=default;labelBackgroundColor=none;startArrow=none;startFill=0;endArrow=none;endFill=0;endSize=8;exitX=1;exitY=1;exitDx=0;exitDy=0;" edge="1" parent="1" source="xo3lkwgqWXO0TBrHMxAI-8" target="okGRqIcc0WK1CJogYlXc-1">
          <mxGeometry relative="1" as="geometry">
            <mxPoint x="790" y="370" as="sourcePoint" />
            <mxPoint x="840" y="370" as="targetPoint" />
          </mxGeometry>
        </mxCell>
        <mxCell id="xo3lkwgqWXO0TBrHMxAI-13" value="Approve Meeting Room Reservations" style="shape=note2;boundedLbl=1;whiteSpace=wrap;html=1;size=25;verticalAlign=top;align=center;fontFamily=Helvetica;fontSize=11;fontColor=default;labelBackgroundColor=none;" vertex="1" parent="1">
          <mxGeometry x="120" y="50" width="120" height="60" as="geometry" />
        </mxCell>
      </root>
    </mxGraphModel>
  </diagram>
  <diagram id="yjTPaEWofFobYbW4Ru4Z" name="Accept Payments and Fines">
    <mxGraphModel dx="1720" dy="828" grid="1" gridSize="10" guides="1" tooltips="1" connect="1" arrows="1" fold="1" page="1" pageScale="1" pageWidth="850" pageHeight="1100" math="0" shadow="0">
      <root>
        <mxCell id="0" />
        <mxCell id="1" parent="0" />
        <mxCell id="qKOn9vlgHrL8vD6RXyRm-23" value="" style="rounded=0;whiteSpace=wrap;html=1;fontFamily=Helvetica;fontSize=11;fontColor=default;labelBackgroundColor=none;" vertex="1" parent="1">
          <mxGeometry x="110" y="190" width="740" height="450" as="geometry" />
        </mxCell>
        <mxCell id="kKjveUsJeSkbaYeKH4mk-1" value="Accept Payments and Fines&amp;nbsp;" style="shape=note2;boundedLbl=1;whiteSpace=wrap;html=1;size=25;verticalAlign=top;align=center;fontFamily=Helvetica;fontSize=11;fontColor=default;labelBackgroundColor=none;" vertex="1" parent="1">
          <mxGeometry x="130" y="110" width="120" height="60" as="geometry" />
        </mxCell>
        <mxCell id="qKOn9vlgHrL8vD6RXyRm-5" value="" style="edgeStyle=none;shape=connector;rounded=0;orthogonalLoop=1;jettySize=auto;html=1;strokeColor=default;strokeWidth=3;align=center;verticalAlign=bottom;fontFamily=Helvetica;fontSize=11;fontColor=default;labelBackgroundColor=none;startArrow=none;startFill=0;endArrow=none;endFill=0;endSize=8;" edge="1" parent="1" source="kKjveUsJeSkbaYeKH4mk-2" target="qKOn9vlgHrL8vD6RXyRm-1">
          <mxGeometry relative="1" as="geometry" />
        </mxCell>
        <mxCell id="kKjveUsJeSkbaYeKH4mk-2" value="Library Staff&lt;div&gt;&lt;br&gt;&lt;/div&gt;" style="shape=umlActor;verticalLabelPosition=bottom;verticalAlign=top;html=1;fontFamily=Helvetica;fontSize=11;fontColor=default;labelBackgroundColor=none;" vertex="1" parent="1">
          <mxGeometry x="60" y="380" width="30" height="60" as="geometry" />
        </mxCell>
        <mxCell id="qKOn9vlgHrL8vD6RXyRm-8" value="" style="edgeStyle=none;shape=connector;rounded=0;orthogonalLoop=1;jettySize=auto;html=1;strokeColor=default;strokeWidth=3;align=center;verticalAlign=bottom;fontFamily=Helvetica;fontSize=11;fontColor=default;labelBackgroundColor=none;startArrow=none;startFill=0;endArrow=none;endFill=0;endSize=8;" edge="1" parent="1" source="qKOn9vlgHrL8vD6RXyRm-1" target="qKOn9vlgHrL8vD6RXyRm-6">
          <mxGeometry relative="1" as="geometry" />
        </mxCell>
        <mxCell id="qKOn9vlgHrL8vD6RXyRm-1" value="Staff goes to Payment and Fine trasnaction log" style="ellipse;whiteSpace=wrap;html=1;fontFamily=Helvetica;fontSize=11;fontColor=default;labelBackgroundColor=none;" vertex="1" parent="1">
          <mxGeometry x="140" y="375" width="140" height="70" as="geometry" />
        </mxCell>
        <mxCell id="qKOn9vlgHrL8vD6RXyRm-2" value="&lt;div&gt;Payment Processing System&lt;/div&gt;" style="shape=umlActor;verticalLabelPosition=bottom;verticalAlign=top;html=1;fontFamily=Helvetica;fontSize=11;fontColor=default;labelBackgroundColor=none;" vertex="1" parent="1">
          <mxGeometry x="920" y="310" width="30" height="60" as="geometry" />
        </mxCell>
        <mxCell id="qKOn9vlgHrL8vD6RXyRm-3" value="Library Account MS" style="shape=umlActor;verticalLabelPosition=bottom;verticalAlign=top;html=1;fontFamily=Helvetica;fontSize=11;fontColor=default;labelBackgroundColor=none;" vertex="1" parent="1">
          <mxGeometry x="910" y="420" width="30" height="60" as="geometry" />
        </mxCell>
        <mxCell id="qKOn9vlgHrL8vD6RXyRm-10" value="" style="edgeStyle=none;shape=connector;rounded=0;orthogonalLoop=1;jettySize=auto;html=1;strokeColor=default;strokeWidth=3;align=center;verticalAlign=bottom;fontFamily=Helvetica;fontSize=11;fontColor=default;labelBackgroundColor=none;startArrow=none;startFill=0;endArrow=none;endFill=0;endSize=8;" edge="1" parent="1" source="qKOn9vlgHrL8vD6RXyRm-6" target="qKOn9vlgHrL8vD6RXyRm-9">
          <mxGeometry relative="1" as="geometry" />
        </mxCell>
        <mxCell id="qKOn9vlgHrL8vD6RXyRm-6" value="Staff Searches For memeber account.&amp;nbsp;" style="ellipse;whiteSpace=wrap;html=1;fontFamily=Helvetica;fontSize=11;fontColor=default;labelBackgroundColor=none;" vertex="1" parent="1">
          <mxGeometry x="310" y="375" width="140" height="70" as="geometry" />
        </mxCell>
        <mxCell id="qKOn9vlgHrL8vD6RXyRm-16" value="" style="edgeStyle=none;shape=connector;rounded=0;orthogonalLoop=1;jettySize=auto;html=1;strokeColor=default;strokeWidth=3;align=center;verticalAlign=bottom;fontFamily=Helvetica;fontSize=11;fontColor=default;labelBackgroundColor=none;startArrow=none;startFill=0;endArrow=none;endFill=0;endSize=8;" edge="1" parent="1" source="qKOn9vlgHrL8vD6RXyRm-9" target="qKOn9vlgHrL8vD6RXyRm-14">
          <mxGeometry relative="1" as="geometry" />
        </mxCell>
        <mxCell id="qKOn9vlgHrL8vD6RXyRm-9" value="Staff Accepts fine payment for processing&amp;nbsp;" style="ellipse;whiteSpace=wrap;html=1;fontFamily=Helvetica;fontSize=11;fontColor=default;labelBackgroundColor=none;" vertex="1" parent="1">
          <mxGeometry x="480" y="380" width="140" height="70" as="geometry" />
        </mxCell>
        <mxCell id="qKOn9vlgHrL8vD6RXyRm-11" value="&amp;lt;&amp;lt;extend&amp;gt;&amp;gt;" style="html=1;verticalAlign=bottom;labelBackgroundColor=none;endArrow=open;endFill=0;dashed=1;rounded=0;strokeColor=default;strokeWidth=3;align=center;fontFamily=Helvetica;fontSize=11;fontColor=default;endSize=8;exitX=0.409;exitY=-0.034;exitDx=0;exitDy=0;exitPerimeter=0;" edge="1" parent="1" source="qKOn9vlgHrL8vD6RXyRm-9">
          <mxGeometry x="-0.4758" y="27" width="160" relative="1" as="geometry">
            <mxPoint x="480" y="320" as="sourcePoint" />
            <mxPoint x="537" y="310" as="targetPoint" />
            <mxPoint as="offset" />
          </mxGeometry>
        </mxCell>
        <mxCell id="qKOn9vlgHrL8vD6RXyRm-12" value="Payment Processing Fails, User is notified&amp;nbsp;" style="ellipse;whiteSpace=wrap;html=1;fontFamily=Helvetica;fontSize=11;fontColor=default;labelBackgroundColor=none;" vertex="1" parent="1">
          <mxGeometry x="460" y="240" width="140" height="70" as="geometry" />
        </mxCell>
        <mxCell id="qKOn9vlgHrL8vD6RXyRm-18" value="" style="edgeStyle=none;shape=connector;rounded=0;orthogonalLoop=1;jettySize=auto;html=1;strokeColor=default;strokeWidth=3;align=center;verticalAlign=bottom;fontFamily=Helvetica;fontSize=11;fontColor=default;labelBackgroundColor=none;startArrow=none;startFill=0;endArrow=none;endFill=0;endSize=8;" edge="1" parent="1" source="qKOn9vlgHrL8vD6RXyRm-14" target="qKOn9vlgHrL8vD6RXyRm-3">
          <mxGeometry relative="1" as="geometry" />
        </mxCell>
        <mxCell id="qKOn9vlgHrL8vD6RXyRm-19" value="" style="edgeStyle=none;shape=connector;rounded=0;orthogonalLoop=1;jettySize=auto;html=1;strokeColor=default;strokeWidth=3;align=center;verticalAlign=bottom;fontFamily=Helvetica;fontSize=11;fontColor=default;labelBackgroundColor=none;startArrow=none;startFill=0;endArrow=none;endFill=0;endSize=8;" edge="1" parent="1" source="qKOn9vlgHrL8vD6RXyRm-14" target="qKOn9vlgHrL8vD6RXyRm-3">
          <mxGeometry relative="1" as="geometry" />
        </mxCell>
        <mxCell id="qKOn9vlgHrL8vD6RXyRm-20" value="" style="edgeStyle=none;shape=connector;rounded=0;orthogonalLoop=1;jettySize=auto;html=1;strokeColor=default;strokeWidth=3;align=center;verticalAlign=bottom;fontFamily=Helvetica;fontSize=11;fontColor=default;labelBackgroundColor=none;startArrow=none;startFill=0;endArrow=none;endFill=0;endSize=8;" edge="1" parent="1" source="qKOn9vlgHrL8vD6RXyRm-14" target="qKOn9vlgHrL8vD6RXyRm-3">
          <mxGeometry relative="1" as="geometry" />
        </mxCell>
        <mxCell id="qKOn9vlgHrL8vD6RXyRm-21" value="" style="edgeStyle=none;shape=connector;rounded=0;orthogonalLoop=1;jettySize=auto;html=1;strokeColor=default;strokeWidth=3;align=center;verticalAlign=bottom;fontFamily=Helvetica;fontSize=11;fontColor=default;labelBackgroundColor=none;startArrow=none;startFill=0;endArrow=none;endFill=0;endSize=8;" edge="1" parent="1" source="qKOn9vlgHrL8vD6RXyRm-14" target="qKOn9vlgHrL8vD6RXyRm-3">
          <mxGeometry relative="1" as="geometry" />
        </mxCell>
        <mxCell id="qKOn9vlgHrL8vD6RXyRm-14" value="Users account is updated and internal balance is changed.&amp;nbsp;" style="ellipse;whiteSpace=wrap;html=1;fontFamily=Helvetica;fontSize=11;fontColor=default;labelBackgroundColor=none;" vertex="1" parent="1">
          <mxGeometry x="655" y="375" width="140" height="70" as="geometry" />
        </mxCell>
        <mxCell id="qKOn9vlgHrL8vD6RXyRm-15" value="&amp;lt;&amp;lt;extend&amp;gt;&amp;gt;" style="html=1;verticalAlign=bottom;labelBackgroundColor=none;endArrow=open;endFill=0;dashed=1;rounded=0;strokeColor=default;strokeWidth=3;align=center;fontFamily=Helvetica;fontSize=11;fontColor=default;endSize=8;exitX=0.5;exitY=1;exitDx=0;exitDy=0;" edge="1" parent="1" source="qKOn9vlgHrL8vD6RXyRm-14">
          <mxGeometry x="-0.4758" y="27" width="160" relative="1" as="geometry">
            <mxPoint x="760" y="548" as="sourcePoint" />
            <mxPoint x="725" y="520" as="targetPoint" />
            <mxPoint as="offset" />
          </mxGeometry>
        </mxCell>
        <mxCell id="qKOn9vlgHrL8vD6RXyRm-17" value="Any current fine is lifted from account. User is notified of fine payment.&amp;nbsp;" style="ellipse;whiteSpace=wrap;html=1;fontFamily=Helvetica;fontSize=11;fontColor=default;labelBackgroundColor=none;" vertex="1" parent="1">
          <mxGeometry x="655" y="520" width="140" height="70" as="geometry" />
        </mxCell>
        <mxCell id="qKOn9vlgHrL8vD6RXyRm-22" value="" style="edgeStyle=none;shape=connector;rounded=0;orthogonalLoop=1;jettySize=auto;html=1;strokeColor=default;strokeWidth=3;align=center;verticalAlign=bottom;fontFamily=Helvetica;fontSize=11;fontColor=default;labelBackgroundColor=none;startArrow=none;startFill=0;endArrow=none;endFill=0;endSize=8;" edge="1" parent="1" target="qKOn9vlgHrL8vD6RXyRm-2">
          <mxGeometry relative="1" as="geometry">
            <mxPoint x="790" y="403" as="sourcePoint" />
            <mxPoint x="910" y="427" as="targetPoint" />
          </mxGeometry>
        </mxCell>
      </root>
    </mxGraphModel>
  </diagram>
  <diagram id="F1t43wwixjPTrxqZZwKL" name="EDit Catalog Use case">
    <mxGraphModel dx="1290" dy="621" grid="1" gridSize="10" guides="1" tooltips="1" connect="1" arrows="1" fold="1" page="1" pageScale="1" pageWidth="850" pageHeight="1100" math="0" shadow="0">
      <root>
        <mxCell id="0" />
        <mxCell id="1" parent="0" />
        <mxCell id="_BsOn9Mcb_rb2qJpaw0C-3" value="" style="rounded=0;whiteSpace=wrap;html=1;fontFamily=Helvetica;fontSize=11;fontColor=default;labelBackgroundColor=none;" vertex="1" parent="1">
          <mxGeometry x="150" y="200" width="250" height="390" as="geometry" />
        </mxCell>
        <mxCell id="_lSD3OdLoitG-KTELoU8-1" value="Library Staff&amp;nbsp;" style="shape=umlActor;verticalLabelPosition=bottom;verticalAlign=top;html=1;outlineConnect=0;fontFamily=Helvetica;fontSize=11;fontColor=default;labelBackgroundColor=none;" vertex="1" parent="1">
          <mxGeometry x="90" y="360" width="30" height="60" as="geometry" />
        </mxCell>
        <mxCell id="_lSD3OdLoitG-KTELoU8-2" value="Add and Edit Library Catalog Item" style="shape=note2;boundedLbl=1;whiteSpace=wrap;html=1;size=25;verticalAlign=top;align=center;fontFamily=Helvetica;fontSize=11;fontColor=default;labelBackgroundColor=none;" vertex="1" parent="1">
          <mxGeometry x="140" y="90" width="120" height="60" as="geometry" />
        </mxCell>
        <mxCell id="DsK0VaJk0c5OOgDckZbE-1" value="Manage Library Catalog&amp;nbsp;" style="ellipse;whiteSpace=wrap;html=1;fontFamily=Helvetica;fontSize=11;fontColor=default;labelBackgroundColor=none;" vertex="1" parent="1">
          <mxGeometry x="220" y="360" width="140" height="70" as="geometry" />
        </mxCell>
        <mxCell id="_BsOn9Mcb_rb2qJpaw0C-2" value="" style="edgeStyle=none;shape=connector;rounded=0;orthogonalLoop=1;jettySize=auto;html=1;strokeColor=default;strokeWidth=3;align=center;verticalAlign=bottom;fontFamily=Helvetica;fontSize=11;fontColor=default;labelBackgroundColor=none;startArrow=none;startFill=0;endArrow=none;endFill=0;endSize=8;" edge="1" parent="1" source="B8FJbZ5SsO-vHdmSFdLD-1" target="DsK0VaJk0c5OOgDckZbE-1">
          <mxGeometry relative="1" as="geometry" />
        </mxCell>
        <mxCell id="B8FJbZ5SsO-vHdmSFdLD-1" value="Library Inventory MS" style="shape=umlActor;verticalLabelPosition=bottom;verticalAlign=top;html=1;outlineConnect=0;fontFamily=Helvetica;fontSize=11;fontColor=default;labelBackgroundColor=none;" vertex="1" parent="1">
          <mxGeometry x="450" y="360" width="30" height="60" as="geometry" />
        </mxCell>
        <mxCell id="B8FJbZ5SsO-vHdmSFdLD-2" value="&amp;lt;&amp;lt;include&amp;gt;&amp;gt;" style="html=1;verticalAlign=bottom;labelBackgroundColor=none;endArrow=open;endFill=0;dashed=1;rounded=0;strokeColor=default;strokeWidth=3;align=center;fontFamily=Helvetica;fontSize=11;fontColor=default;endSize=8;exitX=0.5;exitY=0;exitDx=0;exitDy=0;" edge="1" parent="1" source="DsK0VaJk0c5OOgDckZbE-1">
          <mxGeometry x="-0.1429" y="30" width="160" relative="1" as="geometry">
            <mxPoint x="300" y="300" as="sourcePoint" />
            <mxPoint x="290" y="290" as="targetPoint" />
            <mxPoint as="offset" />
          </mxGeometry>
        </mxCell>
        <mxCell id="B8FJbZ5SsO-vHdmSFdLD-3" value="Ivalid Input Error&amp;nbsp;" style="ellipse;whiteSpace=wrap;html=1;fontFamily=Helvetica;fontSize=11;fontColor=default;labelBackgroundColor=none;" vertex="1" parent="1">
          <mxGeometry x="220" y="220" width="140" height="70" as="geometry" />
        </mxCell>
        <mxCell id="B8FJbZ5SsO-vHdmSFdLD-4" value="Error Processing Request" style="ellipse;whiteSpace=wrap;html=1;fontFamily=Helvetica;fontSize=11;fontColor=default;labelBackgroundColor=none;" vertex="1" parent="1">
          <mxGeometry x="230" y="490" width="140" height="70" as="geometry" />
        </mxCell>
        <mxCell id="B8FJbZ5SsO-vHdmSFdLD-5" value="&amp;lt;&amp;lt;include&amp;gt;&amp;gt;" style="html=1;verticalAlign=bottom;labelBackgroundColor=none;endArrow=open;endFill=0;dashed=1;rounded=0;strokeColor=default;strokeWidth=3;align=center;fontFamily=Helvetica;fontSize=11;fontColor=default;endSize=8;exitX=0.5;exitY=1;exitDx=0;exitDy=0;entryX=0.423;entryY=-0.006;entryDx=0;entryDy=0;entryPerimeter=0;" edge="1" parent="1" source="DsK0VaJk0c5OOgDckZbE-1" target="B8FJbZ5SsO-vHdmSFdLD-4">
          <mxGeometry x="-0.1429" y="30" width="160" relative="1" as="geometry">
            <mxPoint x="300" y="370" as="sourcePoint" />
            <mxPoint x="300" y="300" as="targetPoint" />
            <mxPoint as="offset" />
          </mxGeometry>
        </mxCell>
        <mxCell id="_BsOn9Mcb_rb2qJpaw0C-1" value="" style="edgeStyle=none;shape=connector;rounded=0;orthogonalLoop=1;jettySize=auto;html=1;strokeColor=default;strokeWidth=3;align=center;verticalAlign=bottom;fontFamily=Helvetica;fontSize=11;fontColor=default;labelBackgroundColor=none;startArrow=none;startFill=0;endArrow=none;endFill=0;endSize=8;" edge="1" parent="1">
          <mxGeometry relative="1" as="geometry">
            <mxPoint x="120" y="389.5" as="sourcePoint" />
            <mxPoint x="220" y="390" as="targetPoint" />
          </mxGeometry>
        </mxCell>
      </root>
    </mxGraphModel>
  </diagram>
</mxfile>
